<svg width="25" height="25" viewBox="0 0 25 25" fill="none" xmlns="http://www.w3.org/2000/svg">
<g id="logistics_4363531 2" clip-path="url(#clip0_333_1017)">
<g id="Group">
<path id="Vector" d="M16.0986 0.0780582C15.4199 0.200129 14.6777 0.512629 14.1357 0.898371C13.7695 1.16204 13.208 1.73821 12.9541 2.10931L12.7246 2.44134H12.2363C11.123 2.44622 9.82422 2.71478 8.68164 3.18353L8.20801 3.37396L7.90527 3.12493C7.33887 2.6513 6.76758 2.44134 6.05469 2.44134C5.25879 2.44134 4.62402 2.70013 4.07227 3.247C3.11035 4.20892 2.95898 5.65423 3.71094 6.80657L3.93066 7.14837L3.53516 7.92962C2.93457 9.12591 2.6123 10.2245 2.48047 11.5087L2.42188 12.1093H1.91406C1.35254 12.1093 1.14746 12.1826 0.952149 12.4413C0.854492 12.5683 0.854492 12.6611 0.839844 16.7577L0.830078 20.9423L0.634766 20.996C0.395508 21.0595 0.151367 21.2597 0.0683594 21.4697C0.0244141 21.5722 0 21.8261 0 22.1825C0 22.871 0.0927734 23.1054 0.439453 23.2763C0.644531 23.3837 0.712891 23.3886 1.66504 23.3886H2.67578L2.90527 23.7304C4.01367 25.3954 6.47949 25.415 7.54883 23.7597L7.78809 23.3935H10.0879L12.3828 23.3886L12.4609 23.5449C12.71 24.0673 13.4424 24.663 14.0771 24.8632C14.5361 25.0097 15.3223 25.0195 15.7227 24.8827C16.3965 24.6581 17.0605 24.1357 17.334 23.623L17.4512 23.3935L18.1397 23.3788C18.8086 23.3642 18.8379 23.3593 19.0088 23.2275C19.3115 22.998 19.3359 22.9003 19.3359 22.0361C19.3359 21.3622 19.3213 21.1962 19.2041 20.7177L19.0723 20.1708L19.6338 19.5947C19.9414 19.2773 20.2979 18.8818 20.4297 18.7158L20.6689 18.4081L21.4209 19.414C21.8359 19.9658 22.1924 20.4003 22.2168 20.3808C22.4756 20.0927 24.6289 17.1337 24.7266 16.9238C25.2344 15.8495 25.0098 14.5947 24.1504 13.7402C23.7695 13.3593 23.291 13.0859 22.8272 12.9833L22.5586 12.9247V12.2997C22.5586 10.8251 22.1826 9.33587 21.46 7.92474L21.1523 7.32415L21.3477 6.87982C21.665 6.13763 21.748 5.71282 21.748 4.83392C21.7432 3.99896 21.6748 3.65716 21.3818 2.95403C20.5322 0.908136 18.2813 -0.31745 16.0986 0.0780582ZM17.9004 0.927668C19.2773 1.27435 20.376 2.32903 20.8105 3.71087C20.9082 4.02825 20.9229 4.17474 20.9229 4.83392C20.9229 6.31341 20.835 6.48431 18.6279 9.30169C17.7148 10.4638 16.9531 11.4159 16.9336 11.4111C16.9092 11.4013 14.4727 8.32025 13.7598 7.39251C12.5439 5.81048 12.6416 3.54974 13.9795 2.11419C14.5605 1.49407 15.166 1.13275 15.9912 0.922785C16.4844 0.800714 17.3926 0.800714 17.9004 0.927668ZM6.86035 3.40814C7.2168 3.57903 7.60742 3.91595 7.7832 4.21868C8.08594 4.73626 8.13965 5.47357 7.90527 6.00579C7.8418 6.15228 7.39746 6.79681 6.91895 7.43646L6.04981 8.60345L5.15625 7.40716C4.64356 6.72357 4.22363 6.11321 4.16992 5.9765C4.10156 5.79583 4.07715 5.61028 4.07715 5.22454C4.07715 4.74114 4.08691 4.68743 4.23828 4.3847C4.41406 4.02337 4.72656 3.67669 5.04883 3.49114C5.57617 3.18353 6.29883 3.14935 6.86035 3.40814ZM12.334 3.33001C11.9238 4.70696 12.0752 6.16693 12.7539 7.33392C12.8906 7.56829 15.8154 11.3622 16.9189 12.7343C16.9287 12.7441 17.7393 11.7236 18.7256 10.4638C19.7119 9.20892 20.5518 8.14935 20.5859 8.11028C20.6397 8.04681 20.6836 8.11028 20.8789 8.52532C21.4502 9.75091 21.7773 11.1962 21.7773 12.4951V12.9296L21.5234 12.9882C19.5654 13.4423 18.7158 15.8349 19.9463 17.4413C20.0391 17.5683 20.1172 17.7001 20.1172 17.7343C20.1172 17.8222 19.5703 18.5058 19.1699 18.9306C18.9453 19.1699 18.8477 19.2431 18.8281 19.1894C18.8135 19.1503 18.584 18.2372 18.3154 17.1679C17.7686 14.9853 17.7539 14.9413 17.2803 14.6777L17.0166 14.5263L14.9561 14.5117L12.8906 14.497V13.579C12.8906 12.705 12.8857 12.6513 12.7783 12.4951C12.7197 12.4072 12.5928 12.2802 12.5049 12.2216L12.3389 12.1093H7.80762C5.31738 12.1093 3.2666 12.0947 3.25684 12.0702C3.22266 12.0068 3.31543 11.1718 3.42285 10.6445C3.58887 9.80462 3.98438 8.71087 4.35547 8.06634L4.47754 7.85638L5.24902 8.88665C5.67383 9.45306 6.04004 9.90716 6.05957 9.90228C6.14258 9.87298 8.4082 6.80169 8.54492 6.53802C8.87695 5.88861 8.95508 5.08294 8.74512 4.44329C8.69141 4.26751 8.64258 4.11126 8.64258 4.09173C8.64258 4.03802 9.61914 3.67181 10.1074 3.53997C10.7031 3.38372 11.5527 3.25189 12.1533 3.23236C12.3535 3.22259 12.3633 3.22747 12.334 3.33001ZM4.84375 14.4286L4.8584 15.9667L5.84961 15.4638L6.83594 14.9658L7.83692 15.4687C8.38867 15.7421 8.84766 15.9667 8.86231 15.9667C8.87695 15.9667 8.88672 15.2734 8.88672 14.4286V12.8906H10.498H12.1094V16.9189V20.9472H9.95117H7.78809L7.62207 20.6786C6.8457 19.4433 5.26856 19.0136 3.95508 19.6777C3.80859 19.7509 3.58398 19.8974 3.45703 20.0048C3.20801 20.205 2.80762 20.6982 2.75879 20.8544C2.72949 20.9374 2.68066 20.9472 2.16797 20.9472H1.61133V16.9189V12.8906H3.22266H4.83398L4.84375 14.4286ZM8.05664 13.7695C8.05664 14.2529 8.04688 14.6484 8.03223 14.6484C8.01758 14.6484 7.74902 14.5214 7.43164 14.3603L6.86035 14.0722L6.29883 14.3603C5.99121 14.5165 5.72266 14.6435 5.70313 14.6435C5.67871 14.6484 5.66406 14.2529 5.66406 13.7695V12.8906H6.86035H8.05664V13.7695ZM23.0615 13.9306C23.4863 14.1406 23.7988 14.4531 24.0088 14.8827C24.1357 15.1415 24.1455 15.205 24.1455 15.7226C24.1455 16.1865 24.126 16.3232 24.043 16.5038C23.9209 16.7675 22.2217 19.0527 22.1631 19.0331C22.1387 19.0234 21.7383 18.5009 21.2647 17.871C20.332 16.621 20.2197 16.4062 20.1758 15.8349C20.1221 15.0292 20.6006 14.2333 21.3379 13.9013C21.6748 13.7499 21.8164 13.7255 22.2754 13.7353C22.6514 13.7499 22.7393 13.7695 23.0615 13.9306ZM16.9629 15.4394C17.0361 15.5077 17.1143 15.6591 17.1582 15.83L17.2266 16.1132H16.2207C14.9561 16.1132 14.7803 16.1767 14.5752 16.665C14.4922 16.87 14.4727 17.7001 14.5508 17.9638C14.5996 18.1347 14.79 18.374 14.9658 18.4716C15.0293 18.5107 15.5273 18.54 16.4502 18.5546L17.8418 18.579L18.125 19.7021C18.2764 20.3173 18.4082 20.8544 18.4082 20.8837C18.4082 20.9325 18.2813 20.9472 17.9346 20.9472H17.4561L17.3096 20.6982C16.9824 20.1464 16.3232 19.6533 15.6445 19.4531C15.2393 19.331 14.5264 19.3408 14.1113 19.4775C13.7695 19.5849 13.2861 19.8534 13.0811 20.0488C13.0127 20.1122 12.9443 20.1659 12.9248 20.1659C12.9053 20.1659 12.8906 19.0771 12.8906 17.749V15.332H14.8633H16.8408L16.9629 15.4394ZM17.4512 17.0263C17.4658 17.0751 17.5 17.2118 17.5293 17.3339C17.5586 17.456 17.5928 17.5927 17.6074 17.6367C17.6318 17.7197 17.5537 17.7245 16.4844 17.7245H15.332V17.3339V16.9433H16.377C17.334 16.9433 17.4268 16.9531 17.4512 17.0263ZM6.06445 20.3466C7.09961 20.8398 7.5293 21.997 7.06055 23.0224C6.88965 23.3984 6.49902 23.7939 6.1084 23.9892C5.80566 24.1357 5.75684 24.1454 5.24902 24.1454C4.75098 24.1454 4.6875 24.1357 4.38965 23.9941C3.10059 23.3837 2.83691 21.665 3.88672 20.7079C4.32617 20.3075 4.74609 20.1562 5.35645 20.1855C5.67383 20.2001 5.82031 20.2343 6.06445 20.3466ZM15.7422 20.3515C16.5772 20.7421 17.0605 21.6357 16.8994 22.4902C16.7773 23.1591 16.3818 23.6913 15.7813 23.9843C15.4736 24.1357 15.4297 24.1454 14.917 24.1454C14.4336 24.1454 14.3506 24.1308 14.0967 24.0136C13.5059 23.7353 13.0518 23.1493 12.9346 22.4999C12.7881 21.6943 13.2227 20.8105 13.9551 20.4199C14.3457 20.2099 14.5508 20.1659 15.0244 20.1855C15.3467 20.2001 15.4883 20.2343 15.7422 20.3515ZM2.44141 22.1679V22.5585H1.63574H0.830078V22.1679V21.7773H1.63574H2.44141V22.1679ZM12.1094 22.1679V22.5585H10.083H8.05664V22.1679V21.7773H10.083H12.1094V22.1679ZM18.5547 22.1679V22.5585H18.1397H17.7246V22.1679V21.7773H18.1397H18.5547V22.1679Z" fill="white"/>
<path id="Vector_2" d="M16.2843 1.68473C15.1466 1.93375 14.2676 2.715 13.8819 3.81851C13.711 4.29703 13.6768 5.00992 13.794 5.53726C13.9991 6.46012 14.6583 7.30973 15.4884 7.71012C16.2794 8.09586 17.129 8.15445 17.9542 7.89078C19.463 7.4025 20.4053 5.80094 20.0977 4.2482C19.7462 2.47086 18.0079 1.30387 16.2843 1.68473ZM17.9835 2.67594C18.8331 3.09586 19.336 3.90152 19.336 4.82926C19.336 5.25894 19.2579 5.58121 19.0675 5.9523C18.9112 6.26969 18.5303 6.67984 18.2178 6.88004C17.0313 7.64176 15.4005 7.17789 14.7755 5.90348C14.2286 4.78043 14.5899 3.50601 15.6495 2.80289C16.0792 2.5148 16.3917 2.43668 17.0264 2.45621C17.5587 2.47086 17.588 2.48062 17.9835 2.67594Z" fill="white"/>
<path id="Vector_3" d="M5.58606 4.12115C5.36633 4.21881 5.08801 4.48248 4.97571 4.69733C4.67297 5.29303 4.90735 5.99127 5.51282 6.30865C6.30383 6.72369 7.24621 6.14264 7.24621 5.24908C7.24621 4.73151 6.9093 4.24811 6.45032 4.11139C6.20129 4.03326 5.77649 4.04303 5.58606 4.12115ZM6.24524 4.90729C6.67004 5.12701 6.36242 5.76666 5.90832 5.61041C5.63977 5.51276 5.57141 5.16608 5.78625 4.95612C5.92297 4.81451 6.04992 4.80475 6.24524 4.90729Z" fill="white"/>
<path id="Vector_4" d="M9.66797 10.8887V11.2793H10.083H10.498V10.8887V10.498H10.083H9.66797V10.8887Z" fill="white"/>
<path id="Vector_5" d="M11.2793 10.8887V11.2793H11.6943H12.1094V10.8887V10.498H11.6943H11.2793V10.8887Z" fill="white"/>
<path id="Vector_6" d="M12.8906 10.8887V11.2793H13.3057H13.7207V10.8887V10.498H13.3057H12.8906V10.8887Z" fill="white"/>
<path id="Vector_7" d="M21.7871 14.5945C20.7861 14.9461 20.6982 16.3132 21.6406 16.8015C22.583 17.2849 23.6718 16.3377 23.3154 15.3367C23.0957 14.7068 22.4072 14.3699 21.7871 14.5945ZM22.4316 15.4343C22.5244 15.5076 22.5586 15.5759 22.5586 15.7127C22.5586 16.0789 22.1533 16.2498 21.8994 15.991C21.5429 15.6394 22.0361 15.1218 22.4316 15.4343Z" fill="white"/>
<path id="Vector_8" d="M4.99023 21.001C4.43359 21.1084 4.05762 21.5869 4.05273 22.1826C4.05273 22.5196 4.14551 22.7686 4.36035 22.9883C4.95605 23.6084 5.92773 23.4668 6.31348 22.71C6.7627 21.8115 5.98633 20.8057 4.99023 21.001ZM5.45898 21.8555C5.61523 21.9629 5.66895 22.1338 5.61035 22.3145C5.5127 22.583 5.16602 22.6514 4.95605 22.4365C4.62402 22.1094 5.07812 21.5869 5.45898 21.8555Z" fill="white"/>
<path id="Vector_9" d="M14.6877 20.9961C14.5852 21.0156 14.3996 21.0938 14.2727 21.1719C13.5012 21.6504 13.5549 22.8223 14.3752 23.2568C14.6584 23.4033 15.1809 23.4033 15.4592 23.2568C15.8694 23.0371 16.1135 22.627 16.1135 22.1484C16.1135 21.4258 15.4104 20.8545 14.6877 20.9961ZM15.1955 21.9238C15.3176 22.0508 15.3371 22.0996 15.3127 22.2314C15.2395 22.6074 14.7463 22.6904 14.5754 22.3584C14.4729 22.1631 14.4826 22.0801 14.6438 21.9189C14.8342 21.7334 15.0051 21.7334 15.1955 21.9238Z" fill="white"/>
</g>
</g>
<defs>
<clipPath id="clip0_333_1017">
<rect width="25" height="25" fill="white"/>
</clipPath>
</defs>
</svg>
