<svg width="100" height="100" viewBox="0 0 100 100" fill="none" xmlns="http://www.w3.org/2000/svg">
<rect width="100" height="100" rx="24" fill="#A7CDEA"/>
<path d="M69.8824 46H75.4412C76.9155 46 78.3294 45.4469 79.3719 44.4623C80.4143 43.4777 81 42.1424 81 40.75C81 39.3576 80.4143 38.0223 79.3719 37.0377C78.3294 36.0531 76.9155 35.5 75.4412 35.5H69.8824V53M69.8824 67V81H73.5882C75.554 81 77.4392 80.2625 78.8291 78.9497C80.2191 77.637 81 75.8565 81 74C81 72.1435 80.2191 70.363 78.8291 69.0503C77.4392 67.7375 75.554 67 73.5882 67H69.8824ZM18 25C18 26.8565 18.7809 28.637 20.1709 29.9497C21.5608 31.2625 23.446 32 25.4118 32C27.3775 32 29.2627 31.2625 30.6527 29.9497C32.0426 28.637 32.8235 26.8565 32.8235 25C32.8235 23.1435 32.0426 21.363 30.6527 20.0503C29.2627 18.7375 27.3775 18 25.4118 18C23.446 18 21.5608 18.7375 20.1709 20.0503C18.7809 21.363 18 23.1435 18 25Z" stroke="white" stroke-width="2" stroke-linecap="round" stroke-linejoin="round"/>
<path d="M25.4121 32V42.5C25.4121 43.4283 25.8026 44.3185 26.4975 44.9749C27.1925 45.6313 28.1351 46 29.118 46H40.2356M40.2356 46V70.5C40.2356 71.4283 40.6261 72.3185 41.3211 72.9749C42.0161 73.6313 42.9587 74 43.9415 74H55.0592M40.2356 46H55.0592" stroke="white" stroke-width="2" stroke-linecap="round" stroke-linejoin="round"/>
</svg>
