<svg width="21" height="23" viewBox="0 0 21 23" fill="none" xmlns="http://www.w3.org/2000/svg">
<g id="Group">
<path id="Vector" d="M8.88462 0.20491C6.42115 0.894476 4.76538 3.37691 5.10865 5.87906C5.20962 6.56862 5.14904 6.68683 4.66442 6.94296C3.89712 7.31729 3.55385 7.88865 2.90769 9.78003L2.3625 11.3759H1.43365C0.2625 11.3759 0 11.6123 0 12.6565C0 13.5825 0.2625 13.9371 0.969231 13.9371C1.41346 13.9371 1.45385 13.9962 1.3125 14.4691C1.25192 14.7843 1.13077 16.5969 1.07019 18.5474C0.928846 23 0.928846 23 2.90769 23C3.69519 23 4.4625 22.9212 4.62404 22.8227C4.78558 22.7242 4.94712 22.1922 5.00769 21.5421L5.08846 20.4388H10.5202H15.9519V21.483C15.9519 22.0543 16.0529 22.6257 16.1942 22.7636C16.3356 22.9015 17.0221 23 17.9106 23C19.2029 23 19.4048 22.9606 19.6067 22.5666C19.7885 22.2513 19.8087 20.9904 19.7481 18.0351C19.6269 14.1539 19.6471 13.9371 20.0106 13.9371C20.4346 13.9371 21 13.2279 21 12.6565C21 11.829 20.4548 11.3759 19.4048 11.3759H18.4356L17.951 9.76033C17.5471 8.4403 17.3048 7.98716 16.6183 7.27789C15.7702 6.47011 15.75 6.3913 15.75 5.18949C15.75 3.75125 15.4067 2.82526 14.5183 1.82047C13.125 0.283718 10.9038 -0.366444 8.88462 0.20491ZM12.2163 1.64315C13.2865 2.1948 13.5288 2.43122 14.1346 3.53453C15.3663 5.76084 13.6904 8.79494 11.0654 9.12987C8.44038 9.4845 6.38077 7.73103 6.38077 5.16979C6.38077 2.1357 9.53077 0.244314 12.2163 1.64315ZM8.07692 9.89824C8.46058 10.0953 9.32885 10.2923 10.0356 10.3514C11.6106 10.4696 12.9029 10.0362 13.9529 9.07076C14.599 8.46 14.7404 8.4206 15.1038 8.63732C15.3462 8.77523 15.649 9.34659 15.851 9.97705C16.0327 10.5878 16.275 11.2774 16.376 11.5335C16.4769 11.7896 16.5577 12.164 16.5577 12.361C16.5577 12.7353 16.376 12.755 10.399 12.755C7.00673 12.755 4.24038 12.6762 4.24038 12.5777C4.24038 12.4989 4.42212 11.8487 4.64423 11.1789C4.86635 10.509 5.04808 9.81943 5.04808 9.66182C5.04808 9.5042 5.29038 9.14957 5.57308 8.87374L6.09808 8.3812L6.72404 8.97225C7.0875 9.28748 7.69327 9.72092 8.07692 9.89824ZM16.9413 15.3951C17.0827 15.5527 17.1635 16.0649 17.1231 16.5378L17.0625 17.385H15.4471H13.8317L13.7712 16.6757C13.6904 15.7891 13.9731 15.5724 15.3663 15.336C15.9721 15.2375 16.5173 15.1586 16.5779 15.1389C16.6587 15.1389 16.8202 15.2375 16.9413 15.3951ZM6.3 15.5133C6.92596 15.6906 7.06731 15.8285 7.18846 16.3999C7.24904 16.7545 7.24904 17.1485 7.16827 17.2667C7.10769 17.385 6.36058 17.4835 5.45192 17.4835C3.77596 17.4835 3.63462 17.4047 3.63462 16.3999C3.63462 15.5133 3.83654 15.3163 4.725 15.3163C5.16923 15.3163 5.89615 15.4148 6.3 15.5133Z" fill="white"/>
<path id="Vector_2" d="M9.95425 2.45098C9.87348 2.62829 9.61098 2.96323 9.36867 3.19965C8.90425 3.59369 8.82348 3.83011 8.86386 4.61819C8.88405 5.11073 9.79271 5.66239 10.56 5.66239C11.1254 5.66239 11.3879 6.09583 11.0446 6.43076C10.7619 6.70659 9.69175 6.72629 9.69175 6.45046C9.69175 6.33225 9.51002 6.25344 9.2879 6.25344C8.68213 6.25344 8.7629 7.00212 9.38886 7.27794C9.67155 7.39615 9.89367 7.65228 9.89367 7.869C9.89367 8.08572 10.035 8.22363 10.2975 8.22363C10.5196 8.22363 10.7014 8.12512 10.7014 8.00691C10.7014 7.8887 11.0244 7.51436 11.4081 7.15973C11.7917 6.78539 12.1148 6.37165 12.1148 6.21404C12.1148 5.60328 11.3273 4.93342 10.4994 4.7955C9.79271 4.67729 9.67155 4.59848 9.73213 4.22415C9.79271 3.7316 10.6004 3.51488 10.9639 3.86951C11.2869 4.18474 11.9129 4.14534 11.9129 3.81041C11.9129 3.65279 11.711 3.35726 11.4485 3.16025C11.186 2.96323 10.9235 2.648 10.8427 2.45098C10.6812 2.01754 10.1158 2.01754 9.95425 2.45098Z" fill="white"/>
</g>
</svg>
