<svg width="80" height="80" viewBox="0 0 80 80" fill="none" xmlns="http://www.w3.org/2000/svg">
<g id="Frame 505">
<rect x="0.5" y="0.5" width="79" height="79" rx="7.5" fill="white"/>
<rect x="0.5" y="0.5" width="79" height="79" rx="7.5" stroke="#B4BED9"/>
<path id="Vector" fill-rule="evenodd" clip-rule="evenodd" d="M59.7619 56.1023C56.1825 53.1092 45.5482 44.5923 40.5 44.5923C35.4496 44.5923 24.8234 53.1034 21.2418 56.0987C21.2203 55.3911 21.2003 54.9614 21.2003 54.3312C21.2003 54.3312 21.1128 53.2908 22.0564 52.2497C29.8205 45.3889 37.9607 42.0319 38.2107 41.9292C40.638 40.9286 40.5015 41.1167 40.4993 37.1013C40.4993 37.1013 40.6076 37.0948 40.6766 37.1021C44.095 37.4038 53.2856 46.103 58.7248 51.9842C58.7344 51.9943 59.7982 53.1953 59.7982 54.4614C59.7997 55.0547 59.7819 55.64 59.7619 56.1023ZM59.6157 51.1927C59.0378 50.5676 45.4273 35.9156 40.5 35.9156C35.5742 35.9156 21.9629 50.5676 21.3858 51.192L21.385 51.1927C21.3286 51.2542 20 52.7352 20 54.4621C20 55.8064 20.0912 57.1593 20.0927 57.1723C20.0957 57.2346 20.1276 57.8061 20.4533 57.9617C20.5059 57.987 20.5631 58 20.6217 58C20.7426 58 20.8776 57.9472 21.0237 57.843C21.1706 57.7164 35.0364 45.7723 40.5 45.7723C45.9644 45.7723 59.8309 57.7164 59.9696 57.8372C60.1209 57.9457 60.2574 58 60.3798 58C60.4392 58 60.4948 57.987 60.5482 57.9624C60.8731 57.8076 60.905 57.2353 60.908 57.1709C60.9088 57.1608 61 55.8078 61 54.4636C61 52.7352 59.6714 51.2542 59.6157 51.1927ZM59.7426 42.1665C56.1669 39.177 45.543 30.6688 40.5007 30.6688C35.4555 30.6688 24.8398 39.172 21.2619 42.1636C21.2404 41.4575 21.2203 41.027 21.2203 40.3983C21.2203 40.3983 21.1328 39.3586 22.0757 38.319C29.8323 31.4647 37.9644 28.1113 38.2136 28.0086C40.6387 27.0087 40.5022 27.1968 40.5 23.1858C40.5 23.1858 40.6076 23.1793 40.6773 23.1865C44.092 23.4882 53.2737 32.1787 58.707 38.0535C58.7166 38.0636 59.7797 39.2631 59.7797 40.5285C59.7804 41.1203 59.7619 41.7049 59.7426 42.1665ZM59.5964 37.262C59.0185 36.6376 45.4221 22 40.5 22C35.5794 22 21.9815 36.6376 21.405 37.2612L21.4043 37.262C21.3479 37.3235 20.02 38.803 20.02 40.5285C20.02 41.8713 20.112 43.2228 20.1128 43.2358C20.1157 43.298 20.1476 43.8688 20.4726 44.0244C20.5252 44.0497 20.5823 44.062 20.6409 44.062C20.7619 44.062 20.8961 44.0092 21.0423 43.905C21.1899 43.7784 35.0415 31.8467 40.5 31.8467C45.9592 31.8467 59.8116 43.7784 59.9503 43.8992C60.1009 44.0078 60.2374 44.0613 60.3598 44.0613C60.4191 44.0613 60.4748 44.049 60.5282 44.0237C60.8524 43.8688 60.885 43.2973 60.8872 43.2329C60.888 43.2228 60.9792 41.8713 60.9792 40.5285C60.98 38.803 59.6528 37.3235 59.5964 37.262Z" fill="#B4BED9"/>
</g>
</svg>
