<svg width="25" height="25" viewBox="0 0 25 25" fill="none" xmlns="http://www.w3.org/2000/svg">
<g id="logistics_4363531 2" clip-path="url(#clip0_287_1706)">
<g id="Group">
<path id="Vector" d="M16.0986 0.0781193C15.4199 0.20019 14.6777 0.51269 14.1357 0.898432C13.7695 1.1621 13.208 1.73828 12.9541 2.10937L12.7246 2.4414H12.2363C11.123 2.44628 9.82422 2.71484 8.68164 3.18359L8.20801 3.37402L7.90527 3.12499C7.33887 2.65136 6.76758 2.4414 6.05469 2.4414C5.25879 2.4414 4.62402 2.70019 4.07227 3.24706C3.11035 4.20898 2.95898 5.65429 3.71094 6.80663L3.93066 7.14843L3.53516 7.92968C2.93457 9.12597 2.6123 10.2246 2.48047 11.5088L2.42188 12.1094H1.91406C1.35254 12.1094 1.14746 12.1826 0.952149 12.4414C0.854492 12.5684 0.854492 12.6611 0.839844 16.7578L0.830078 20.9424L0.634766 20.9961C0.395508 21.0596 0.151367 21.2598 0.0683594 21.4697C0.0244141 21.5723 0 21.8262 0 22.1826C0 22.8711 0.0927734 23.1055 0.439453 23.2764C0.644531 23.3838 0.712891 23.3887 1.66504 23.3887H2.67578L2.90527 23.7305C4.01367 25.3955 6.47949 25.415 7.54883 23.7598L7.78809 23.3935H10.0879L12.3828 23.3887L12.4609 23.5449C12.71 24.0674 13.4424 24.6631 14.0771 24.8633C14.5361 25.0098 15.3223 25.0195 15.7227 24.8828C16.3965 24.6582 17.0605 24.1357 17.334 23.623L17.4512 23.3935L18.1397 23.3789C18.8086 23.3643 18.8379 23.3594 19.0088 23.2275C19.3115 22.998 19.3359 22.9004 19.3359 22.0361C19.3359 21.3623 19.3213 21.1963 19.2041 20.7178L19.0723 20.1709L19.6338 19.5947C19.9414 19.2773 20.2979 18.8818 20.4297 18.7158L20.6689 18.4082L21.4209 19.4141C21.8359 19.9658 22.1924 20.4004 22.2168 20.3809C22.4756 20.0928 24.6289 17.1338 24.7266 16.9238C25.2344 15.8496 25.0098 14.5947 24.1504 13.7402C23.7695 13.3594 23.291 13.0859 22.8272 12.9834L22.5586 12.9248V12.2998C22.5586 10.8252 22.1826 9.33593 21.46 7.9248L21.1523 7.32421L21.3477 6.87988C21.665 6.13769 21.748 5.71288 21.748 4.83398C21.7432 3.99902 21.6748 3.65722 21.3818 2.9541C20.5322 0.908197 18.2813 -0.317389 16.0986 0.0781193ZM17.9004 0.927729C19.2773 1.27441 20.376 2.3291 20.8105 3.71093C20.9082 4.02831 20.9229 4.1748 20.9229 4.83398C20.9229 6.31347 20.835 6.48437 18.6279 9.30175C17.7148 10.4639 16.9531 11.416 16.9336 11.4111C16.9092 11.4014 14.4727 8.32031 13.7598 7.39257C12.5439 5.81054 12.6416 3.5498 13.9795 2.11425C14.5605 1.49413 15.166 1.13281 15.9912 0.922846C16.4844 0.800776 17.3926 0.800776 17.9004 0.927729ZM6.86035 3.4082C7.2168 3.5791 7.60742 3.91601 7.7832 4.21874C8.08594 4.73632 8.13965 5.47363 7.90527 6.00585C7.8418 6.15234 7.39746 6.79687 6.91895 7.43652L6.04981 8.60351L5.15625 7.40722C4.64356 6.72363 4.22363 6.11328 4.16992 5.97656C4.10156 5.79589 4.07715 5.61035 4.07715 5.2246C4.07715 4.74121 4.08691 4.68749 4.23828 4.38476C4.41406 4.02343 4.72656 3.67675 5.04883 3.49121C5.57617 3.18359 6.29883 3.14941 6.86035 3.4082ZM12.334 3.33007C11.9238 4.70703 12.0752 6.16699 12.7539 7.33398C12.8906 7.56835 15.8154 11.3623 16.9189 12.7344C16.9287 12.7441 17.7393 11.7236 18.7256 10.4639C19.7119 9.20898 20.5518 8.14941 20.5859 8.11035C20.6397 8.04687 20.6836 8.11035 20.8789 8.52538C21.4502 9.75097 21.7773 11.1963 21.7773 12.4951V12.9297L21.5234 12.9883C19.5654 13.4424 18.7158 15.835 19.9463 17.4414C20.0391 17.5684 20.1172 17.7002 20.1172 17.7344C20.1172 17.8223 19.5703 18.5059 19.1699 18.9307C18.9453 19.1699 18.8477 19.2432 18.8281 19.1894C18.8135 19.1504 18.584 18.2373 18.3154 17.168C17.7686 14.9853 17.7539 14.9414 17.2803 14.6777L17.0166 14.5264L14.9561 14.5117L12.8906 14.4971V13.5791C12.8906 12.7051 12.8857 12.6514 12.7783 12.4951C12.7197 12.4072 12.5928 12.2803 12.5049 12.2217L12.3389 12.1094H7.80762C5.31738 12.1094 3.2666 12.0947 3.25684 12.0703C3.22266 12.0068 3.31543 11.1719 3.42285 10.6445C3.58887 9.80468 3.98438 8.71093 4.35547 8.0664L4.47754 7.85644L5.24902 8.88671C5.67383 9.45312 6.04004 9.90722 6.05957 9.90234C6.14258 9.87304 8.4082 6.80175 8.54492 6.53808C8.87695 5.88867 8.95508 5.083 8.74512 4.44335C8.69141 4.26757 8.64258 4.11132 8.64258 4.09179C8.64258 4.03808 9.61914 3.67187 10.1074 3.54003C10.7031 3.38378 11.5527 3.25195 12.1533 3.23242C12.3535 3.22265 12.3633 3.22753 12.334 3.33007ZM4.84375 14.4287L4.8584 15.9668L5.84961 15.4639L6.83594 14.9658L7.83692 15.4687C8.38867 15.7422 8.84766 15.9668 8.86231 15.9668C8.87695 15.9668 8.88672 15.2734 8.88672 14.4287V12.8906H10.498H12.1094V16.9189V20.9473H9.95117H7.78809L7.62207 20.6787C6.8457 19.4434 5.26856 19.0137 3.95508 19.6777C3.80859 19.751 3.58398 19.8975 3.45703 20.0049C3.20801 20.2051 2.80762 20.6982 2.75879 20.8545C2.72949 20.9375 2.68066 20.9473 2.16797 20.9473H1.61133V16.9189V12.8906H3.22266H4.83398L4.84375 14.4287ZM8.05664 13.7695C8.05664 14.2529 8.04688 14.6484 8.03223 14.6484C8.01758 14.6484 7.74902 14.5215 7.43164 14.3603L6.86035 14.0723L6.29883 14.3603C5.99121 14.5166 5.72266 14.6435 5.70313 14.6435C5.67871 14.6484 5.66406 14.2529 5.66406 13.7695V12.8906H6.86035H8.05664V13.7695ZM23.0615 13.9307C23.4863 14.1406 23.7988 14.4531 24.0088 14.8828C24.1357 15.1416 24.1455 15.2051 24.1455 15.7226C24.1455 16.1865 24.126 16.3232 24.043 16.5039C23.9209 16.7676 22.2217 19.0527 22.1631 19.0332C22.1387 19.0234 21.7383 18.501 21.2647 17.8711C20.332 16.6211 20.2197 16.4062 20.1758 15.835C20.1221 15.0293 20.6006 14.2334 21.3379 13.9014C21.6748 13.75 21.8164 13.7256 22.2754 13.7353C22.6514 13.75 22.7393 13.7695 23.0615 13.9307ZM16.9629 15.4394C17.0361 15.5078 17.1143 15.6592 17.1582 15.8301L17.2266 16.1133H16.2207C14.9561 16.1133 14.7803 16.1768 14.5752 16.665C14.4922 16.8701 14.4727 17.7002 14.5508 17.9639C14.5996 18.1348 14.79 18.374 14.9658 18.4717C15.0293 18.5107 15.5273 18.54 16.4502 18.5547L17.8418 18.5791L18.125 19.7021C18.2764 20.3174 18.4082 20.8545 18.4082 20.8838C18.4082 20.9326 18.2813 20.9473 17.9346 20.9473H17.4561L17.3096 20.6982C16.9824 20.1465 16.3232 19.6533 15.6445 19.4531C15.2393 19.331 14.5264 19.3408 14.1113 19.4775C13.7695 19.585 13.2861 19.8535 13.0811 20.0488C13.0127 20.1123 12.9443 20.166 12.9248 20.166C12.9053 20.166 12.8906 19.0771 12.8906 17.749V15.332H14.8633H16.8408L16.9629 15.4394ZM17.4512 17.0264C17.4658 17.0752 17.5 17.2119 17.5293 17.334C17.5586 17.456 17.5928 17.5928 17.6074 17.6367C17.6318 17.7197 17.5537 17.7246 16.4844 17.7246H15.332V17.334V16.9434H16.377C17.334 16.9434 17.4268 16.9531 17.4512 17.0264ZM6.06445 20.3467C7.09961 20.8398 7.5293 21.9971 7.06055 23.0225C6.88965 23.3984 6.49902 23.7939 6.1084 23.9893C5.80566 24.1357 5.75684 24.1455 5.24902 24.1455C4.75098 24.1455 4.6875 24.1357 4.38965 23.9941C3.10059 23.3838 2.83691 21.665 3.88672 20.708C4.32617 20.3076 4.74609 20.1562 5.35645 20.1855C5.67383 20.2002 5.82031 20.2344 6.06445 20.3467ZM15.7422 20.3516C16.5772 20.7422 17.0605 21.6357 16.8994 22.4902C16.7773 23.1592 16.3818 23.6914 15.7813 23.9844C15.4736 24.1357 15.4297 24.1455 14.917 24.1455C14.4336 24.1455 14.3506 24.1309 14.0967 24.0137C13.5059 23.7353 13.0518 23.1494 12.9346 22.5C12.7881 21.6943 13.2227 20.8105 13.9551 20.4199C14.3457 20.21 14.5508 20.166 15.0244 20.1855C15.3467 20.2002 15.4883 20.2344 15.7422 20.3516ZM2.44141 22.168V22.5586H1.63574H0.830078V22.168V21.7773H1.63574H2.44141V22.168ZM12.1094 22.168V22.5586H10.083H8.05664V22.168V21.7773H10.083H12.1094V22.168ZM18.5547 22.168V22.5586H18.1397H17.7246V22.168V21.7773H18.1397H18.5547V22.168Z" fill="white"/>
<path id="Vector_2" d="M16.2843 1.68454C15.1466 1.93357 14.2676 2.71482 13.8819 3.81833C13.711 4.29685 13.6768 5.00974 13.794 5.53708C13.9991 6.45993 14.6583 7.30954 15.4884 7.70993C16.2794 8.09568 17.129 8.15427 17.9542 7.8906C19.463 7.40232 20.4053 5.80075 20.0977 4.24802C19.7462 2.47067 18.0079 1.30368 16.2843 1.68454ZM17.9835 2.67575C18.8331 3.09567 19.336 3.90134 19.336 4.82907C19.336 5.25876 19.2579 5.58103 19.0675 5.95212C18.9112 6.2695 18.5303 6.67966 18.2178 6.87985C17.0313 7.64157 15.4005 7.17771 14.7755 5.90329C14.2286 4.78025 14.5899 3.50583 15.6495 2.80271C16.0792 2.51462 16.3917 2.4365 17.0264 2.45603C17.5587 2.47067 17.588 2.48044 17.9835 2.67575Z" fill="white"/>
<path id="Vector_3" d="M5.58606 4.12109C5.36633 4.21875 5.08801 4.48242 4.97571 4.69727C4.67297 5.29297 4.90735 5.99121 5.51282 6.30859C6.30383 6.72363 7.24621 6.14258 7.24621 5.24902C7.24621 4.73145 6.9093 4.24805 6.45032 4.11133C6.20129 4.0332 5.77649 4.04297 5.58606 4.12109ZM6.24524 4.90723C6.67004 5.12695 6.36242 5.7666 5.90832 5.61035C5.63977 5.5127 5.57141 5.16602 5.78625 4.95605C5.92297 4.81445 6.04992 4.80469 6.24524 4.90723Z" fill="white"/>
<path id="Vector_4" d="M9.66797 10.8887V11.2793H10.083H10.498V10.8887V10.498H10.083H9.66797V10.8887Z" fill="white"/>
<path id="Vector_5" d="M11.2793 10.8887V11.2793H11.6943H12.1094V10.8887V10.498H11.6943H11.2793V10.8887Z" fill="white"/>
<path id="Vector_6" d="M12.8906 10.8887V11.2793H13.3057H13.7207V10.8887V10.498H13.3057H12.8906V10.8887Z" fill="white"/>
<path id="Vector_7" d="M21.7871 14.5947C20.7861 14.9463 20.6982 16.3135 21.6406 16.8018C22.583 17.2852 23.6718 16.3379 23.3154 15.3369C23.0957 14.707 22.4072 14.3701 21.7871 14.5947ZM22.4316 15.4346C22.5244 15.5078 22.5586 15.5762 22.5586 15.7129C22.5586 16.0791 22.1533 16.25 21.8994 15.9912C21.5429 15.6397 22.0361 15.1221 22.4316 15.4346Z" fill="white"/>
<path id="Vector_8" d="M4.99023 21.001C4.43359 21.1084 4.05762 21.5869 4.05273 22.1826C4.05273 22.5196 4.14551 22.7686 4.36035 22.9883C4.95605 23.6084 5.92773 23.4668 6.31348 22.71C6.7627 21.8115 5.98633 20.8057 4.99023 21.001ZM5.45898 21.8555C5.61523 21.9629 5.66895 22.1338 5.61035 22.3145C5.5127 22.583 5.16602 22.6514 4.95605 22.4365C4.62402 22.1094 5.07812 21.5869 5.45898 21.8555Z" fill="white"/>
<path id="Vector_9" d="M14.6875 20.9961C14.5849 21.0156 14.3994 21.0938 14.2724 21.1719C13.5009 21.6504 13.5547 22.8223 14.375 23.2568C14.6582 23.4033 15.1806 23.4033 15.459 23.2568C15.8691 23.0371 16.1133 22.627 16.1133 22.1484C16.1133 21.4258 15.4101 20.8545 14.6875 20.9961ZM15.1953 21.9238C15.3174 22.0508 15.3369 22.0996 15.3125 22.2314C15.2392 22.6074 14.7461 22.6904 14.5752 22.3584C14.4726 22.1631 14.4824 22.0801 14.6435 21.9189C14.834 21.7334 15.0049 21.7334 15.1953 21.9238Z" fill="white"/>
</g>
</g>
<defs>
<clipPath id="clip0_287_1706">
<rect width="25" height="25" fill="white"/>
</clipPath>
</defs>
</svg>
