<svg width="37" height="36" viewBox="0 0 37 36" fill="none" xmlns="http://www.w3.org/2000/svg">
<g id="Flag">
<g clip-path="url(#clip0_86_312)">
<rect x="0.5" width="36" height="36" rx="18" fill="white"/>
<path id="Vector" fill-rule="evenodd" clip-rule="evenodd" d="M0.5 0H22.1V16.8H0.5V0Z" fill="#1A47B8"/>
<path id="Vector_2" fill-rule="evenodd" clip-rule="evenodd" d="M22.1 0V2.4H50.9V0H22.1ZM22.1 4.8V7.2H50.9V4.8H22.1ZM22.1 9.6V12H50.9V9.6H22.1ZM22.1 14.4V16.8H50.9V14.4H22.1ZM0.5 19.2V21.6H50.9V19.2H0.5ZM0.5 24V26.4H50.9V24H0.5ZM0.5 28.8V31.2H50.9V28.8H0.5ZM0.5 33.6V36H50.9V33.6H0.5Z" fill="#F93939"/>
<path id="Vector_3" fill-rule="evenodd" clip-rule="evenodd" d="M2.8999 2.40002V4.80002H5.2999V2.40002H2.8999ZM7.6999 2.40002V4.80002H10.0999V2.40002H7.6999ZM12.4999 2.40002V4.80002H14.8999V2.40002H12.4999ZM17.2999 2.40002V4.80002H19.6999V2.40002H17.2999ZM14.8999 4.80002V7.20002H17.2999V4.80002H14.8999ZM10.0999 4.80002V7.20002H12.4999V4.80002H10.0999ZM5.2999 4.80002V7.20002H7.6999V4.80002H5.2999ZM2.8999 7.20002V9.60002H5.2999V7.20002H2.8999ZM7.6999 7.20002V9.60002H10.0999V7.20002H7.6999ZM12.4999 7.20002V9.60002H14.8999V7.20002H12.4999ZM17.2999 7.20002V9.60002H19.6999V7.20002H17.2999ZM2.8999 12V14.4H5.2999V12H2.8999ZM7.6999 12V14.4H10.0999V12H7.6999ZM12.4999 12V14.4H14.8999V12H12.4999ZM17.2999 12V14.4H19.6999V12H17.2999ZM14.8999 9.60002V12H17.2999V9.60002H14.8999ZM10.0999 9.60002V12H12.4999V9.60002H10.0999ZM5.2999 9.60002V12H7.6999V9.60002H5.2999Z" fill="white"/>
</g>
</g>
<defs>
<clipPath id="clip0_86_312">
<rect x="0.5" width="36" height="36" rx="18" fill="white"/>
</clipPath>
</defs>
</svg>
