<svg width="314" height="129" viewBox="0 0 314 129" fill="none" xmlns="http://www.w3.org/2000/svg">
<rect x="0.5" y="0.5" width="313" height="128" rx="15.5" fill="white"/>
<rect x="0.5" y="0.5" width="313" height="128" rx="15.5" stroke="#D0D6E7"/>
<rect x="27.5" y="24.5" width="17" height="17" rx="8.5" fill="white"/>
<rect x="27.5" y="24.5" width="17" height="17" rx="8.5" stroke="#065C9E"/>
<circle cx="36" cy="33" r="0.5" fill="white"/>
<path d="M58.0938 35.8906C58.0938 36.5677 57.9271 37.151 57.5938 37.6406C57.2656 38.1302 56.7917 38.5052 56.1719 38.7656C55.5573 39.026 54.8229 39.1562 53.9688 39.1562C53.5521 39.1562 53.1536 39.1328 52.7734 39.0859C52.3932 39.0391 52.0339 38.9714 51.6953 38.8828C51.362 38.7891 51.0573 38.6771 50.7812 38.5469V36.7812C51.2448 36.9844 51.763 37.1693 52.3359 37.3359C52.9089 37.4974 53.4922 37.5781 54.0859 37.5781C54.5703 37.5781 54.9714 37.5156 55.2891 37.3906C55.612 37.2604 55.8516 37.0781 56.0078 36.8438C56.1641 36.6042 56.2422 36.3255 56.2422 36.0078C56.2422 35.6693 56.151 35.3828 55.9688 35.1484C55.7865 34.9141 55.5104 34.7005 55.1406 34.5078C54.776 34.3099 54.3177 34.099 53.7656 33.875C53.3906 33.724 53.0312 33.5521 52.6875 33.3594C52.349 33.1667 52.0469 32.9401 51.7812 32.6797C51.5156 32.4193 51.3047 32.112 51.1484 31.7578C50.9974 31.3984 50.9219 30.9766 50.9219 30.4922C50.9219 29.8464 51.0755 29.2943 51.3828 28.8359C51.6953 28.3776 52.1328 28.026 52.6953 27.7812C53.263 27.5365 53.9245 27.4141 54.6797 27.4141C55.2786 27.4141 55.8411 27.4766 56.3672 27.6016C56.8984 27.7266 57.4193 27.9036 57.9297 28.1328L57.3359 29.6406C56.8672 29.4479 56.4115 29.2943 55.9688 29.1797C55.5312 29.0651 55.0833 29.0078 54.625 29.0078C54.2292 29.0078 53.8932 29.0677 53.6172 29.1875C53.3411 29.3073 53.1302 29.4766 52.9844 29.6953C52.8438 29.9089 52.7734 30.1641 52.7734 30.4609C52.7734 30.7943 52.8542 31.0755 53.0156 31.3047C53.1823 31.5286 53.4375 31.7344 53.7812 31.9219C54.1302 32.1094 54.5781 32.3177 55.125 32.5469C55.7552 32.8073 56.2891 33.0807 56.7266 33.3672C57.1693 33.6536 57.5078 33.9974 57.7422 34.3984C57.9766 34.7943 58.0938 35.2917 58.0938 35.8906ZM64.9141 39H63.0703V31.6484C63.0703 31.4036 63.0729 31.1589 63.0781 30.9141C63.0833 30.6693 63.0885 30.4297 63.0938 30.1953C63.1042 29.9609 63.1172 29.737 63.1328 29.5234C63.0234 29.6432 62.888 29.7734 62.7266 29.9141C62.5703 30.0547 62.4036 30.2005 62.2266 30.3516L60.9141 31.3984L59.9922 30.2344L63.3828 27.5781H64.9141V39Z" fill="#065C9E"/>
<rect x="95.5" y="24.5" width="17" height="17" rx="8.5" fill="white"/>
<rect x="95.5" y="24.5" width="17" height="17" rx="8.5" stroke="#065C9E"/>
<circle cx="104" cy="33" r="0.5" fill="white"/>
<path d="M126.094 35.8906C126.094 36.5677 125.927 37.151 125.594 37.6406C125.266 38.1302 124.792 38.5052 124.172 38.7656C123.557 39.026 122.823 39.1562 121.969 39.1562C121.552 39.1562 121.154 39.1328 120.773 39.0859C120.393 39.0391 120.034 38.9714 119.695 38.8828C119.362 38.7891 119.057 38.6771 118.781 38.5469V36.7812C119.245 36.9844 119.763 37.1693 120.336 37.3359C120.909 37.4974 121.492 37.5781 122.086 37.5781C122.57 37.5781 122.971 37.5156 123.289 37.3906C123.612 37.2604 123.852 37.0781 124.008 36.8438C124.164 36.6042 124.242 36.3255 124.242 36.0078C124.242 35.6693 124.151 35.3828 123.969 35.1484C123.786 34.9141 123.51 34.7005 123.141 34.5078C122.776 34.3099 122.318 34.099 121.766 33.875C121.391 33.724 121.031 33.5521 120.688 33.3594C120.349 33.1667 120.047 32.9401 119.781 32.6797C119.516 32.4193 119.305 32.112 119.148 31.7578C118.997 31.3984 118.922 30.9766 118.922 30.4922C118.922 29.8464 119.076 29.2943 119.383 28.8359C119.695 28.3776 120.133 28.026 120.695 27.7812C121.263 27.5365 121.924 27.4141 122.68 27.4141C123.279 27.4141 123.841 27.4766 124.367 27.6016C124.898 27.7266 125.419 27.9036 125.93 28.1328L125.336 29.6406C124.867 29.4479 124.411 29.2943 123.969 29.1797C123.531 29.0651 123.083 29.0078 122.625 29.0078C122.229 29.0078 121.893 29.0677 121.617 29.1875C121.341 29.3073 121.13 29.4766 120.984 29.6953C120.844 29.9089 120.773 30.1641 120.773 30.4609C120.773 30.7943 120.854 31.0755 121.016 31.3047C121.182 31.5286 121.438 31.7344 121.781 31.9219C122.13 32.1094 122.578 32.3177 123.125 32.5469C123.755 32.8073 124.289 33.0807 124.727 33.3672C125.169 33.6536 125.508 33.9974 125.742 34.3984C125.977 34.7943 126.094 35.2917 126.094 35.8906ZM135.25 39H127.516V37.6172L130.477 34.6172C131.049 34.0339 131.521 33.5312 131.891 33.1094C132.26 32.6823 132.534 32.2786 132.711 31.8984C132.893 31.5182 132.984 31.1042 132.984 30.6562C132.984 30.1042 132.826 29.6875 132.508 29.4062C132.19 29.1198 131.771 28.9766 131.25 28.9766C130.755 28.9766 130.297 29.0755 129.875 29.2734C129.458 29.4661 129.026 29.7422 128.578 30.1016L127.57 28.8906C127.888 28.6198 128.227 28.3724 128.586 28.1484C128.951 27.9245 129.357 27.7474 129.805 27.6172C130.253 27.4818 130.763 27.4141 131.336 27.4141C132.06 27.4141 132.685 27.5443 133.211 27.8047C133.737 28.0599 134.141 28.4167 134.422 28.875C134.708 29.3333 134.852 29.8672 134.852 30.4766C134.852 31.0911 134.729 31.6589 134.484 32.1797C134.24 32.7005 133.891 33.2161 133.438 33.7266C132.984 34.2318 132.445 34.7812 131.82 35.375L129.844 37.3047V37.3906H135.25V39Z" fill="#065C9E"/>
<rect x="163.5" y="24.5" width="17" height="17" rx="8.5" fill="white"/>
<rect x="163.5" y="24.5" width="17" height="17" rx="8.5" stroke="#065C9E"/>
<circle cx="172" cy="33" r="0.5" fill="white"/>
<path d="M194.094 35.8906C194.094 36.5677 193.927 37.151 193.594 37.6406C193.266 38.1302 192.792 38.5052 192.172 38.7656C191.557 39.026 190.823 39.1562 189.969 39.1562C189.552 39.1562 189.154 39.1328 188.773 39.0859C188.393 39.0391 188.034 38.9714 187.695 38.8828C187.362 38.7891 187.057 38.6771 186.781 38.5469V36.7812C187.245 36.9844 187.763 37.1693 188.336 37.3359C188.909 37.4974 189.492 37.5781 190.086 37.5781C190.57 37.5781 190.971 37.5156 191.289 37.3906C191.612 37.2604 191.852 37.0781 192.008 36.8438C192.164 36.6042 192.242 36.3255 192.242 36.0078C192.242 35.6693 192.151 35.3828 191.969 35.1484C191.786 34.9141 191.51 34.7005 191.141 34.5078C190.776 34.3099 190.318 34.099 189.766 33.875C189.391 33.724 189.031 33.5521 188.688 33.3594C188.349 33.1667 188.047 32.9401 187.781 32.6797C187.516 32.4193 187.305 32.112 187.148 31.7578C186.997 31.3984 186.922 30.9766 186.922 30.4922C186.922 29.8464 187.076 29.2943 187.383 28.8359C187.695 28.3776 188.133 28.026 188.695 27.7812C189.263 27.5365 189.924 27.4141 190.68 27.4141C191.279 27.4141 191.841 27.4766 192.367 27.6016C192.898 27.7266 193.419 27.9036 193.93 28.1328L193.336 29.6406C192.867 29.4479 192.411 29.2943 191.969 29.1797C191.531 29.0651 191.083 29.0078 190.625 29.0078C190.229 29.0078 189.893 29.0677 189.617 29.1875C189.341 29.3073 189.13 29.4766 188.984 29.6953C188.844 29.9089 188.773 30.1641 188.773 30.4609C188.773 30.7943 188.854 31.0755 189.016 31.3047C189.182 31.5286 189.438 31.7344 189.781 31.9219C190.13 32.1094 190.578 32.3177 191.125 32.5469C191.755 32.8073 192.289 33.0807 192.727 33.3672C193.169 33.6536 193.508 33.9974 193.742 34.3984C193.977 34.7943 194.094 35.2917 194.094 35.8906ZM202.812 30.1875C202.812 30.7031 202.708 31.151 202.5 31.5312C202.292 31.9115 202.005 32.224 201.641 32.4688C201.281 32.7083 200.865 32.8802 200.391 32.9844V33.0391C201.302 33.1536 201.99 33.4401 202.453 33.8984C202.922 34.3568 203.156 34.9635 203.156 35.7188C203.156 36.3802 202.997 36.9714 202.68 37.4922C202.362 38.0078 201.875 38.4141 201.219 38.7109C200.562 39.0078 199.719 39.1562 198.688 39.1562C198.068 39.1562 197.492 39.1068 196.961 39.0078C196.435 38.9089 195.935 38.75 195.461 38.5312V36.8984C195.945 37.138 196.461 37.3229 197.008 37.4531C197.555 37.5833 198.073 37.6484 198.562 37.6484C199.516 37.6484 200.195 37.4714 200.602 37.1172C201.008 36.7578 201.211 36.263 201.211 35.6328C201.211 35.2266 201.104 34.8932 200.891 34.6328C200.682 34.3724 200.357 34.1771 199.914 34.0469C199.477 33.9167 198.911 33.8516 198.219 33.8516H197.211V32.375H198.227C198.888 32.375 199.419 32.2969 199.82 32.1406C200.221 31.9792 200.51 31.7578 200.688 31.4766C200.87 31.1953 200.961 30.8672 200.961 30.4922C200.961 30.0026 200.802 29.6224 200.484 29.3516C200.167 29.0755 199.695 28.9375 199.07 28.9375C198.685 28.9375 198.333 28.9818 198.016 29.0703C197.703 29.1589 197.414 29.2708 197.148 29.4062C196.883 29.5417 196.63 29.6875 196.391 29.8438L195.508 28.5703C195.94 28.2474 196.456 27.974 197.055 27.75C197.654 27.526 198.352 27.4141 199.148 27.4141C200.32 27.4141 201.224 27.6667 201.859 28.1719C202.495 28.6719 202.812 29.3438 202.812 30.1875Z" fill="#065C9E"/>
<rect x="231.5" y="24.5" width="17" height="17" rx="8.5" fill="white"/>
<rect x="231.5" y="24.5" width="17" height="17" rx="8.5" stroke="#065C9E"/>
<circle cx="240" cy="33" r="0.5" fill="white"/>
<path d="M262.094 35.8906C262.094 36.5677 261.927 37.151 261.594 37.6406C261.266 38.1302 260.792 38.5052 260.172 38.7656C259.557 39.026 258.823 39.1562 257.969 39.1562C257.552 39.1562 257.154 39.1328 256.773 39.0859C256.393 39.0391 256.034 38.9714 255.695 38.8828C255.362 38.7891 255.057 38.6771 254.781 38.5469V36.7812C255.245 36.9844 255.763 37.1693 256.336 37.3359C256.909 37.4974 257.492 37.5781 258.086 37.5781C258.57 37.5781 258.971 37.5156 259.289 37.3906C259.612 37.2604 259.852 37.0781 260.008 36.8438C260.164 36.6042 260.242 36.3255 260.242 36.0078C260.242 35.6693 260.151 35.3828 259.969 35.1484C259.786 34.9141 259.51 34.7005 259.141 34.5078C258.776 34.3099 258.318 34.099 257.766 33.875C257.391 33.724 257.031 33.5521 256.688 33.3594C256.349 33.1667 256.047 32.9401 255.781 32.6797C255.516 32.4193 255.305 32.112 255.148 31.7578C254.997 31.3984 254.922 30.9766 254.922 30.4922C254.922 29.8464 255.076 29.2943 255.383 28.8359C255.695 28.3776 256.133 28.026 256.695 27.7812C257.263 27.5365 257.924 27.4141 258.68 27.4141C259.279 27.4141 259.841 27.4766 260.367 27.6016C260.898 27.7266 261.419 27.9036 261.93 28.1328L261.336 29.6406C260.867 29.4479 260.411 29.2943 259.969 29.1797C259.531 29.0651 259.083 29.0078 258.625 29.0078C258.229 29.0078 257.893 29.0677 257.617 29.1875C257.341 29.3073 257.13 29.4766 256.984 29.6953C256.844 29.9089 256.773 30.1641 256.773 30.4609C256.773 30.7943 256.854 31.0755 257.016 31.3047C257.182 31.5286 257.438 31.7344 257.781 31.9219C258.13 32.1094 258.578 32.3177 259.125 32.5469C259.755 32.8073 260.289 33.0807 260.727 33.3672C261.169 33.6536 261.508 33.9974 261.742 34.3984C261.977 34.7943 262.094 35.2917 262.094 35.8906ZM271.664 36.4922H270.117V39H268.305V36.4922H263.109V35.1016L268.328 27.5469H270.117V34.9688H271.664V36.4922ZM268.305 34.9688V32.1328C268.305 31.8984 268.307 31.6615 268.312 31.4219C268.323 31.1771 268.333 30.9427 268.344 30.7188C268.354 30.4948 268.365 30.2891 268.375 30.1016C268.385 29.9089 268.393 29.75 268.398 29.625H268.336C268.237 29.8333 268.128 30.0469 268.008 30.2656C267.888 30.4792 267.76 30.6875 267.625 30.8906L264.812 34.9688H268.305Z" fill="#065C9E"/>
<rect y="76" width="314" height="24" fill="url(#paint0_linear_450_932)"/>
<rect y="100" width="314" height="5" fill="url(#paint1_linear_450_932)"/>
<rect x="8.26367" y="87" width="13.4276" height="2" fill="white"/>
<rect y="87" width="3.09868" height="2" fill="white"/>
<rect x="27.8887" y="87" width="13.4276" height="2" fill="white"/>
<rect x="47.5137" y="87" width="13.4276" height="2" fill="white"/>
<rect x="67.1387" y="87" width="13.4276" height="2" fill="white"/>
<rect x="86.7637" y="87" width="13.4276" height="2" fill="white"/>
<rect x="106.389" y="87" width="13.4276" height="2" fill="white"/>
<rect x="126.014" y="87" width="13.4276" height="2" fill="white"/>
<rect x="145.639" y="87" width="13.4276" height="2" fill="white"/>
<rect x="165.264" y="87" width="13.4276" height="2" fill="white"/>
<rect x="184.889" y="87" width="13.4276" height="2" fill="white"/>
<rect x="204.514" y="87" width="13.4276" height="2" fill="white"/>
<rect x="224.139" y="87" width="13.4276" height="2" fill="white"/>
<rect x="243.764" y="87" width="13.4276" height="2" fill="white"/>
<rect x="263.389" y="87" width="13.4276" height="2" fill="white"/>
<rect x="283.014" y="87" width="13.4276" height="2" fill="white"/>
<rect x="302.639" y="87" width="11.3618" height="2" fill="white"/>
<line y1="96.75" x2="314" y2="96.75" stroke="white" stroke-width="0.5"/>
<line y1="78.75" x2="314" y2="78.75" stroke="white" stroke-width="0.5"/>
<path d="M72.436 86.9873C72.436 87.5708 72.436 88.4254 72.436 88.6963C72.436 88.9671 72.6025 89.0299 72.6025 89.3008C72.6025 89.5716 72.0813 90.4262 71.5396 90.4888C70.9979 90.5513 62.2649 91.2181 61.7022 91.2181C61.1395 91.2181 35.9226 91.2181 35.14 91.2181C35.14 91.2181 27.938 90.4262 27.7921 90.3012C27.6461 90.1761 26.9998 88.4879 26.9998 87.8001C26.9998 87.1123 27.1044 85.3824 27.2084 85.0697C27.3124 84.7571 27.2709 79.4006 27.521 79.213C27.7711 79.0254 31.8353 74.9405 32.2105 74.6904C32.5857 74.4402 41.8396 73.9608 44.8408 74.0026C47.8421 74.0443 51.4061 74.3362 52.8027 74.8782C54.1988 75.4199 56.2206 76.337 58.0129 77.4833C59.8056 78.6295 61.9938 80.2344 62.5358 80.3805C63.0778 80.5261 65.1829 80.7972 67.2045 81.4224C69.2261 82.0477 69.8514 82.3916 70.2996 82.8605C70.7478 83.3295 71.1854 83.9235 71.3105 84.0173C71.4355 84.1111 71.8002 84.2256 71.8627 84.434C71.9253 84.6425 72.1023 86.0912 72.1233 86.2682C72.1438 86.4453 72.436 86.6644 72.436 86.9873Z" fill="#9ED5FF"/>
<path d="M72.1233 86.2682C72.1438 86.4453 72.436 86.6643 72.436 86.9872C72.436 87.5707 72.436 88.4253 72.436 88.6962C72.436 88.9671 72.6025 89.0298 72.6025 89.3007C72.6025 89.5716 72.0813 90.4262 71.5396 90.4887C70.9979 90.5512 62.2649 91.218 61.7022 91.218C61.1395 91.218 35.9226 91.218 35.14 91.218C35.14 91.218 27.938 90.4262 27.7921 90.3011C27.6461 90.1761 26.9998 88.4879 26.9998 87.8001C26.9998 87.1123 27.1044 85.3823 27.2084 85.0697C27.2399 84.9751 27.2582 84.4184 27.2749 83.6836L72.0258 85.4929C72.0736 85.856 72.1141 86.1891 72.1233 86.2682Z" fill="url(#paint2_linear_450_932)"/>
<path d="M60.0934 91.2184C59.9916 90.832 59.9318 90.4286 59.9318 90.0099C59.9318 87.3946 62.0522 85.2744 64.6676 85.2744C67.2829 85.2744 69.4033 87.3946 69.4033 90.0099C69.4033 90.234 69.3823 90.4528 69.3521 90.6689C66.5676 90.8863 62.1 91.2184 61.7026 91.2184C61.6218 91.2184 61.0365 91.2184 60.0934 91.2184Z" fill="#6D93B0"/>
<path d="M32.6961 85.2744C35.3115 85.2744 37.4316 87.3946 37.4316 90.0099C37.4316 90.4286 37.3721 90.832 37.2701 91.2184C36.0518 91.2184 35.2685 91.2184 35.1407 91.2184C35.1407 91.2184 29.1146 90.5561 27.9777 90.3476C27.9697 90.2358 27.9606 90.1237 27.9606 90.0099C27.9604 87.3943 30.0808 85.2744 32.6961 85.2744Z" fill="#6D93B0"/>
<g opacity="0.6">
<path d="M61.9925 80.6486C62.055 80.8517 64.0739 82.3116 64.6904 82.5512C65.2734 82.7775 69.136 83.4823 69.6627 83.5596L69.8018 83.5804C70.1772 83.6374 70.6179 83.7029 70.9955 83.6629C71.0293 83.7034 71.0611 83.7414 71.0908 83.7772C70.981 83.7937 70.8665 83.8017 70.7489 83.8017C70.4255 83.8017 70.0836 83.7499 69.7833 83.7042L69.645 83.6834C69.1022 83.6036 65.2511 82.9028 64.6453 82.6677C64.0651 82.4424 61.964 80.9798 61.8734 80.6856C61.8277 80.5381 62.0007 80.371 62.2058 80.2314C62.2528 80.257 62.2951 80.2785 62.3359 80.298C62.121 80.4358 61.9697 80.5741 61.9925 80.6486Z" fill="#5FA2D6"/>
<path d="M35.0084 75.0574C35.5574 74.9093 42.2507 74.6484 43.7523 74.6484H44.1843C46.423 74.6484 49.6578 74.715 51.8965 75.2912C54.4158 75.94 57.252 77.7948 57.8735 78.2562C58.2932 78.5676 58.3045 78.8295 58.3205 79.1924C58.324 79.2734 58.3277 79.3612 58.3362 79.4577C58.351 79.6225 58.4193 79.8291 58.5056 80.0907C58.6926 80.658 58.9757 81.5146 59.0713 82.9607C59.2118 85.0808 58.8675 88.0884 58.7584 88.9592C58.7441 89.073 58.7321 89.1808 58.7204 89.2821C58.6439 89.9584 58.5933 90.4051 58.1386 90.4051H39.7979C39.5406 90.4051 38.6827 90.3478 38.4463 89.6115C38.4258 89.5482 38.4003 89.4589 38.3688 89.3489C38.119 88.4745 37.4557 86.152 35.9525 85.2904C35.4543 85.0046 34.9469 84.7537 34.4557 84.5108C33.2697 83.9236 32.2452 83.4169 31.9861 82.7151C31.6075 81.6917 32.0359 79.7146 32.5096 78.7477C32.9455 77.857 34.4076 75.2189 35.0084 75.0574ZM58.1381 90.28C58.4673 90.28 58.5163 89.9699 58.5958 89.2679C58.6073 89.1663 58.6196 89.0578 58.6339 88.9435C58.7424 88.0754 59.0858 85.0781 58.946 82.9687C58.8512 81.5388 58.5716 80.6907 58.3862 80.1297C58.2975 79.8604 58.2274 79.6475 58.2114 79.4682C58.2029 79.3699 58.1989 79.2801 58.1954 79.1974C58.1794 78.8329 58.1707 78.6321 57.799 78.3562C57.1815 77.8981 54.3645 76.056 51.865 75.4123C50.081 74.9531 47.6552 74.8198 45.6134 74.7845C45.6189 75.2012 45.6764 77.6049 46.2771 79.9894C46.9077 82.4915 46.6723 89.554 46.6465 90.28H58.1381ZM32.1029 82.6721C32.345 83.3271 33.3484 83.8238 34.5107 84.3988C35.0036 84.6426 35.5128 84.8945 36.0146 85.1824C37.5615 86.069 38.2352 88.4272 38.4889 89.3149C38.5199 89.4232 38.5449 89.5107 38.5649 89.5732C38.776 90.2293 39.5618 90.28 39.7979 90.28H46.5215C46.547 89.582 46.7841 82.511 46.1566 80.0202C45.5508 77.6169 45.4943 75.1934 45.4888 74.7827C45.0296 74.7757 44.5904 74.7735 44.1845 74.7735H43.7526C42.2922 74.7735 35.5651 75.0369 35.0409 75.1779C34.5612 75.307 33.1911 77.6404 32.6216 78.8027C32.1077 79.8514 31.7693 81.7702 32.1029 82.6721Z" fill="#5FA2D6"/>
</g>
<path d="M64.6673 94.0112C62.4572 94.0112 60.6656 92.2196 60.6656 90.0095C60.6656 87.7994 62.4572 86.0078 64.6673 86.0078C66.8773 86.0078 68.6689 87.7994 68.6689 90.0095C68.6689 92.2196 66.8773 94.0112 64.6673 94.0112Z" fill="#404040"/>
<path d="M61.9325 90.0093C61.9325 91.5197 63.1568 92.7445 64.6674 92.7445C66.1781 92.7445 67.4023 91.52 67.4023 90.0093C67.4023 88.4989 66.1781 87.2744 64.6674 87.2744C63.1568 87.2747 61.9325 88.4989 61.9325 90.0093Z" fill="#EFEFEF"/>
<path d="M32.6956 94.0112C30.4855 94.0112 28.6939 92.2196 28.6939 90.0095C28.6939 87.7994 30.4855 86.0078 32.6956 86.0078C34.9056 86.0078 36.6973 87.7994 36.6973 90.0095C36.6973 92.2196 34.9056 94.0112 32.6956 94.0112Z" fill="#404040"/>
<path d="M29.9599 90.0093C29.9599 91.5197 31.1841 92.7445 32.6948 92.7445C34.2052 92.7445 35.4297 91.52 35.4297 90.0093C35.4297 88.4989 34.2052 87.2744 32.6948 87.2744C31.1844 87.2747 29.9599 88.4989 29.9599 90.0093Z" fill="#EFEFEF"/>
<path d="M47.1128 80.6176C46.9248 80.6151 46.8095 80.5233 46.7377 80.3074C46.0997 78.3901 46.0499 75.9101 46.0081 75.5764C45.9791 75.3433 45.9806 75.1693 46.0449 75.088C46.0719 75.0532 46.1109 75.0357 46.1627 75.0372C49.0049 75.141 51.4837 75.4396 52.4408 75.811C53.282 76.1374 55.4561 77.0358 57.4742 78.3266C58.0427 78.6902 58.648 79.0982 59.2415 79.5001C59.6669 79.789 60.3049 80.7559 59.5136 80.7559C59.1614 80.7554 53.4203 80.6936 47.1128 80.6176Z" fill="#4F4F4F"/>
<path d="M44.8268 75.0025C44.9378 75.004 45.0479 75.007 45.1584 75.0087C45.2315 75.0453 45.29 75.2031 45.2682 75.8364C45.237 76.7327 45.6954 79.7965 45.7162 80.1717C45.7369 80.5463 45.5501 80.5981 45.5501 80.5981C41.0682 80.5433 36.5478 80.4831 33.3047 80.4831C32.8357 80.4831 32.7137 80.1139 32.7594 79.9386C32.8675 79.5269 33.003 79.142 33.1544 78.8329C33.582 77.9597 34.4602 76.4293 35.0744 75.6668C35.195 75.5167 35.7447 75.3009 35.92 75.2931C39.0311 75.1506 42.7477 75 44.4381 75C44.5774 75.0003 44.707 75.0012 44.8268 75.0025Z" fill="#4F4F4F"/>
<path d="M71.6233 84.4186C71.6908 84.4799 72.0297 86.3882 71.8266 86.4352C71.6235 86.4822 70.0288 86.2319 69.6849 86.1068C69.341 85.9818 68.6693 84.3873 68.669 84.231C68.6688 84.0747 68.6532 83.8714 68.9659 83.9026C69.2785 83.9339 71.3361 84.1587 71.6233 84.4186Z" fill="white"/>
<path d="M71.3812 89.1233C70.9668 89.1233 70.5469 88.7874 70.4436 88.373L70.3023 87.806C70.1987 87.3916 70.4511 87.0557 70.8655 87.0557H72.4354C72.4354 87.6357 72.4354 88.4352 72.4354 88.6961C72.4354 88.8962 72.5257 88.983 72.5732 89.1233H71.3812Z" fill="#4F4F4F"/>
<path d="M27.3655 80.4521H28.4699C28.6535 80.4521 28.7938 80.6012 28.7826 80.785L28.5622 84.4338C28.551 84.6174 28.3932 84.7665 28.2096 84.7665H27.2394C27.2844 83.9671 27.2967 81.832 27.3655 80.4521Z" fill="#F26914"/>
<path d="M47.6638 81.8615C47.6526 82.1038 48.0555 82.3199 48.5647 82.3439C49.0732 82.3679 49.4949 82.1911 49.5066 81.9488C49.5179 81.7064 49.1149 81.4906 48.606 81.466C48.0973 81.442 47.6756 81.6194 47.6638 81.8615Z" fill="#5FA2D6"/>
<path d="M47.362 81.8471C47.3563 81.9707 47.8992 82.097 48.5745 82.129C49.2501 82.1607 49.8025 82.0864 49.8085 81.9629C49.8143 81.8393 49.2713 81.713 48.596 81.6813C47.9205 81.6493 47.368 81.7233 47.362 81.8471Z" fill="#BDE2FF"/>
<path d="M33.4705 81.6309C33.4592 81.8733 33.8621 82.0894 34.3714 82.1134C34.8798 82.1374 35.3015 81.9606 35.3132 81.7182C35.3245 81.4759 34.9216 81.26 34.4126 81.2355C33.9039 81.2118 33.4822 81.3891 33.4705 81.6309Z" fill="#5FA2D6"/>
<path d="M33.1687 81.6166C33.1629 81.7402 33.7059 81.8665 34.3812 81.8985C35.0567 81.9303 35.6092 81.856 35.6152 81.7324C35.6209 81.6089 35.078 81.4826 34.4027 81.4508C33.7271 81.4188 33.1747 81.4931 33.1687 81.6166Z" fill="#BDE2FF"/>
<defs>
<linearGradient id="paint0_linear_450_932" x1="157" y1="76" x2="157" y2="100" gradientUnits="userSpaceOnUse">
<stop stop-color="#D9D9D9" stop-opacity="0.5"/>
<stop offset="1" stop-color="#D9D9D9"/>
</linearGradient>
<linearGradient id="paint1_linear_450_932" x1="157" y1="100" x2="157" y2="105" gradientUnits="userSpaceOnUse">
<stop stop-color="#A8A8A8"/>
<stop offset="1" stop-color="#A8A8A8" stop-opacity="0.55"/>
</linearGradient>
<linearGradient id="paint2_linear_450_932" x1="49.8012" y1="83.5274" x2="49.8012" y2="90.03" gradientUnits="userSpaceOnUse">
<stop stop-color="#BDE2FF"/>
<stop offset="1" stop-color="#9ED5FF"/>
</linearGradient>
</defs>
</svg>
