<svg width="100" height="100" viewBox="0 0 100 100" fill="none" xmlns="http://www.w3.org/2000/svg">
<rect width="100" height="100" rx="24" fill="#A7CDEA"/>
<path d="M22.6667 34.3333C20.6333 34.3333 18.6833 33.5256 17.2455 32.0878C15.8077 30.65 15 28.7 15 26.6667C15 24.6333 15.8077 22.6833 17.2455 21.2455C18.6833 19.8077 20.6333 19 22.6667 19C24.7 19 26.65 19.8077 28.0878 21.2455C29.5256 22.6833 30.3333 24.6333 30.3333 26.6667C30.3333 28.7 29.5256 30.65 28.0878 32.0878C26.65 33.5256 24.7 34.3333 22.6667 34.3333ZM22.6667 34.3333V65M49.5 34.3333C47.4667 34.3333 45.5166 33.5256 44.0788 32.0878C42.6411 30.65 41.8333 28.7 41.8333 26.6667C41.8333 24.6333 42.6411 22.6833 44.0788 21.2455C45.5166 19.8077 47.4667 19 49.5 19C51.5333 19 53.4834 19.8077 54.9211 21.2455C56.3589 22.6833 57.1667 24.6333 57.1667 26.6667C57.1667 28.7 56.3589 30.65 54.9211 32.0878C53.4834 33.5256 51.5333 34.3333 49.5 34.3333ZM49.5 34.3333V65M22.6667 65C24.7 65 26.65 65.8077 28.0878 67.2455C29.5256 68.6833 30.3333 70.6333 30.3333 72.6667C30.3333 74.7 29.5256 76.65 28.0878 78.0878C26.65 79.5256 24.7 80.3333 22.6667 80.3333C20.6333 80.3333 18.6833 79.5256 17.2455 78.0878C15.8077 76.65 15 74.7 15 72.6667C15 70.6333 15.8077 68.6833 17.2455 67.2455C18.6833 65.8077 20.6333 65 22.6667 65ZM49.5 65C51.5333 65 53.4834 65.8077 54.9211 67.2455C56.3589 68.6833 57.1667 70.6333 57.1667 72.6667C57.1667 74.7 56.3589 76.65 54.9211 78.0878C53.4834 79.5256 51.5333 80.3333 49.5 80.3333C47.4667 80.3333 45.5166 79.5256 44.0788 78.0878C42.6411 76.65 41.8333 74.7 41.8333 72.6667C41.8333 70.6333 42.6411 68.6833 44.0788 67.2455C45.5166 65.8077 47.4667 65 49.5 65ZM68.6667 26.6667C68.6667 28.7 69.4744 30.65 70.9122 32.0878C72.35 33.5256 74.3 34.3333 76.3333 34.3333C78.3667 34.3333 80.3167 33.5256 81.7545 32.0878C83.1923 30.65 84 28.7 84 26.6667C84 24.6333 83.1923 22.6833 81.7545 21.2455C80.3167 19.8077 78.3667 19 76.3333 19C74.3 19 72.35 19.8077 70.9122 21.2455C69.4744 22.6833 68.6667 24.6333 68.6667 26.6667Z" stroke="white" stroke-width="2" stroke-linecap="round" stroke-linejoin="round"/>
<path d="M76.3337 34.333V41.9997C76.3337 44.033 75.5259 45.983 74.0881 47.4208C72.6504 48.8586 70.7003 49.6663 68.667 49.6663H22.667" stroke="white" stroke-width="2" stroke-linecap="round" stroke-linejoin="round"/>
</svg>
