<svg width="80" height="80" viewBox="0 0 80 80" fill="none" xmlns="http://www.w3.org/2000/svg">
<rect x="0.5" y="0.5" width="79" height="79" rx="7.5" fill="white"/>
<rect x="0.5" y="0.5" width="79" height="79" rx="7.5" stroke="#B4BED9"/>
<g clip-path="url(#clip0_287_739)">
<path fill-rule="evenodd" clip-rule="evenodd" d="M36.9728 20.5077C36.1878 20.7775 35.2278 21.2531 34.8394 21.5648C34.4512 21.8764 33.4434 22.4436 32.6 22.8251C30.8396 23.6215 30.7362 23.9498 31.7672 25.4688C32.8072 27.0012 33.6198 27.3152 34.438 26.5009C35.0164 25.9254 36.3222 25.993 36.657 26.6157C36.984 27.2235 36.3968 27.5047 34.994 27.4125C33.2042 27.2949 32.7762 27.9494 33.7518 29.3128C34.5934 30.4888 35.18 30.7061 36.1558 30.204C37.1692 29.6826 37.4082 29.8633 36.9158 30.7787C36.3318 31.8647 36.1536 31.8287 32.0412 29.7928C26.5198 27.0593 23.7554 27.0917 22.2214 29.9081C21.6656 30.9284 22.4432 31.961 23.6256 31.7727C24.5594 31.6243 24.6794 31.6736 24.9208 32.3053C25.0944 32.7598 25.3866 33.0016 25.762 33.0016C26.0782 33.0016 26.7712 33.2688 27.3018 33.5954L28.2666 34.1892L26.5334 34.5389C23.0728 35.2372 22.1962 35.6637 21.5334 36.9717C20.351 39.3045 21.075 40.7634 23.0788 40.0866C23.9172 39.8034 24.3664 39.767 24.6056 39.9628C24.8154 40.1343 26.505 40.2197 29.0416 40.1867C33.3864 40.1299 34.1898 40.2911 35.5916 41.5013C36.2488 42.0686 36.2492 42.0704 35.7546 42.9086C32.3656 48.6515 31.7352 50.07 31.6384 52.1687C31.5862 53.3019 31.5262 54.229 31.505 54.2292C30.6738 54.237 26.816 55.1274 26.3792 55.4121C25.7818 55.8016 25.562 56.59 25.395 58.9439L25.3334 59.8113L31.3334 59.8585L37.3334 59.9055L37.241 58.0362L37.1486 56.1668L40.2558 52.6941L43.363 49.2213L45.4148 50.7437C48.6964 53.1783 49.089 53.4181 50.1526 53.638C51.3902 53.8939 51.6334 54.4167 50.619 54.641C47.9136 55.239 47.5234 55.6651 47.2302 58.3417L47.0558 59.9337L52.1102 59.9232L57.1644 59.9126L58.3822 58.6115C59.052 57.8959 59.6 57.1526 59.6 56.9598C59.6 56.3638 56.2574 50.0953 54.6882 47.7486C52.8834 45.0497 52.8844 45.3666 54.6738 43.6084C57.2414 41.0852 57.2076 40.3311 54.2444 34.0155C52.0456 29.3289 51.7006 28.0734 52.251 26.7624C52.704 25.6836 53.7334 25.4344 53.7334 26.4038C53.7334 28.7759 57.539 33.3264 58.3846 31.9652C58.5438 31.7088 57.4502 27.2491 56.7708 25.3837C55.798 22.712 52.3614 22.2398 50.4386 24.5134L49.7022 25.3843L48.6398 24.352C48.0556 23.7843 47.5106 23.0545 47.4288 22.7303C47.3166 22.2856 46.77 21.9451 45.2024 21.3435C41.3772 19.8758 39.3972 19.6746 36.9728 20.5077ZM41.344 21.1976C44.5718 22.0131 45.993 22.6653 46.1802 23.4167C46.2754 23.7996 47.1244 24.9092 48.0666 25.8826C49.7256 27.5966 49.7872 27.7098 50.0144 29.4647C50.5942 33.9401 50.5966 33.9355 47.3334 34.7429C44.0424 35.5572 44.0836 35.8286 48.3002 41.1172C52.2932 46.1256 55.2496 50.4979 57.0266 54.0235L58.32 56.5894L57.4266 57.6832L56.5334 58.7771L54.5598 58.6257C53.4744 58.5425 52.025 58.4742 51.3392 58.4742C50.105 58.4742 50.0936 58.4663 50.21 57.6768C50.3366 56.8189 50.6522 56.6836 54.6666 55.7664C56.8616 55.2649 56.8418 55.0028 54.3032 50.9701C48.2442 41.3449 43.8798 37.6014 31.3 31.24C28.3938 29.7705 27.5602 29.4667 26.1184 29.3514C23.692 29.1576 23.9278 28.6744 26.3886 28.7982C28.3134 28.8949 28.5674 28.9936 34.3218 31.8832C41.6244 35.5502 41.3986 35.5238 42.729 32.869C44.4992 29.3361 44.4164 28.6372 41.8408 25.3759C39.9142 22.9363 37.724 22.6808 33.5648 24.4097C32.677 24.7789 32.1334 24.7216 32.1334 24.2585C32.1334 24.1371 32.6434 23.8364 33.2666 23.5904C33.89 23.3445 34.7 22.8694 35.0666 22.5351C35.8266 21.8418 38.0338 20.9871 39.4774 20.8269C39.6298 20.8099 40.4698 20.9767 41.344 21.1976ZM36.2272 22.121C35.5016 22.4123 35.1984 22.8905 35.5302 23.2209C35.8778 23.5666 38 22.7122 38 22.2267C38 21.8155 37.119 21.763 36.2272 22.121ZM53.6258 38.2983C54.1226 39.4559 53.6292 40.2619 51.8786 41.1522C50.4714 41.8681 50.3798 41.8243 48.3622 39.4724C46.3114 37.0816 46.358 36.7676 48.8846 35.96C50.3526 35.4905 50.909 35.1767 51.1306 34.6929C51.4372 34.0233 52.3694 35.3705 53.6258 38.2983ZM32.7862 38.2933C33.248 38.801 33.202 38.8101 29.7694 38.8903C25.9992 38.9785 25.2026 38.3811 28.607 38.0183C31.584 37.7013 32.29 37.7477 32.7862 38.2933ZM38.6444 42.3721C39.0888 42.6955 38.9714 42.9337 37.0442 45.6225C33.8454 50.0852 33.121 51.6117 33.3342 53.4402C33.5478 55.2714 33.4048 55.4139 30.9284 55.8356C28.5732 56.2366 28.2174 56.4281 28.0004 57.4107C27.7942 58.3457 27.0666 58.4967 27.0666 57.6046C27.0666 56.3886 27.7358 55.8893 29.798 55.5666C32.9598 55.0716 32.9286 55.0993 32.8594 52.8448C32.7946 50.7353 34.0472 47.7057 36.648 43.6816C37.7944 41.9079 37.9058 41.8348 38.6444 42.3721Z" fill="#B4BED9"/>
</g>
<defs>
<clipPath id="clip0_287_739">
<rect width="40" height="40" fill="white" transform="translate(20 20)"/>
</clipPath>
</defs>
</svg>
