<svg width="103" height="17" viewBox="0 0 103 17" fill="none" xmlns="http://www.w3.org/2000/svg">
<rect width="103" height="17" rx="8.5" fill="#A7CDEA"/>
<path d="M11.2988 7.76172C11.8809 7.76172 12.3867 7.86133 12.8164 8.06055C13.2461 8.25586 13.5781 8.54102 13.8125 8.91602C14.0508 9.29102 14.1699 9.74609 14.1699 10.2812C14.1699 10.8672 14.043 11.373 13.7891 11.7988C13.5352 12.2207 13.1699 12.5469 12.6934 12.7773C12.2168 13.0039 11.6465 13.1172 10.9824 13.1172C10.5371 13.1172 10.123 13.0781 9.74023 13C9.35742 12.9219 9.03516 12.8047 8.77344 12.6484V11.7227C9.05859 11.8945 9.4043 12.0312 9.81055 12.1328C10.2168 12.2344 10.6113 12.2852 10.9941 12.2852C11.4277 12.2852 11.8066 12.2168 12.1309 12.0801C12.459 11.9395 12.7129 11.7285 12.8926 11.4473C13.0762 11.1621 13.168 10.8047 13.168 10.375C13.168 9.80469 12.9922 9.36523 12.6406 9.05664C12.293 8.74414 11.7422 8.58789 10.9883 8.58789C10.7461 8.58789 10.4805 8.60742 10.1914 8.64648C9.90234 8.68555 9.66406 8.72852 9.47656 8.77539L8.98438 8.45312L9.3125 4.43359H13.5723V5.32422H10.1445L9.92773 7.9082C10.0762 7.87695 10.2676 7.8457 10.502 7.81445C10.7363 7.7793 11.002 7.76172 11.2988 7.76172ZM17.4219 9.71289L15.2012 6.57812H16.3145L18.0078 9.05078L19.6953 6.57812H20.7969L18.5762 9.71289L20.9199 13H19.8066L18.0078 10.3809L16.1973 13H15.0957L17.4219 9.71289ZM27.6758 4.43359C28.7812 4.43359 29.5879 4.65039 30.0957 5.08398C30.6074 5.51367 30.8633 6.13086 30.8633 6.93555C30.8633 7.29883 30.8027 7.64453 30.6816 7.97266C30.5645 8.29688 30.373 8.58398 30.1074 8.83398C29.8418 9.08008 29.4922 9.27539 29.0586 9.41992C28.6289 9.56055 28.1016 9.63086 27.4766 9.63086H26.4336V13H25.4375V4.43359H27.6758ZM27.582 5.2832H26.4336V8.77539H27.3652C27.9121 8.77539 28.3672 8.7168 28.7305 8.59961C29.0977 8.48242 29.373 8.29297 29.5566 8.03125C29.7402 7.76562 29.832 7.41406 29.832 6.97656C29.832 6.40625 29.6504 5.98242 29.2871 5.70508C28.9238 5.42383 28.3555 5.2832 27.582 5.2832ZM34.9824 6.46094C35.5293 6.46094 35.998 6.58203 36.3887 6.82422C36.7793 7.06641 37.0781 7.40625 37.2852 7.84375C37.4922 8.27734 37.5957 8.78516 37.5957 9.36719V9.9707H33.1602C33.1719 10.7246 33.3594 11.2988 33.7227 11.6934C34.0859 12.0879 34.5977 12.2852 35.2578 12.2852C35.6641 12.2852 36.0234 12.248 36.3359 12.1738C36.6484 12.0996 36.9727 11.9902 37.3086 11.8457V12.7012C36.9844 12.8457 36.6621 12.9512 36.3418 13.0176C36.0254 13.084 35.6504 13.1172 35.2168 13.1172C34.5996 13.1172 34.0605 12.9922 33.5996 12.7422C33.1426 12.4883 32.7871 12.1172 32.5332 11.6289C32.2793 11.1406 32.1523 10.543 32.1523 9.83594C32.1523 9.14453 32.2676 8.54688 32.498 8.04297C32.7324 7.53516 33.0605 7.14453 33.4824 6.87109C33.9082 6.59766 34.4082 6.46094 34.9824 6.46094ZM34.9707 7.25781C34.4512 7.25781 34.0371 7.42773 33.7285 7.76758C33.4199 8.10742 33.2363 8.58203 33.1777 9.19141H36.5762C36.5723 8.80859 36.5117 8.47266 36.3945 8.18359C36.2812 7.89062 36.1074 7.66406 35.873 7.50391C35.6387 7.33984 35.3379 7.25781 34.9707 7.25781ZM44.5508 6.57812V13H43.7539L43.6133 12.0977H43.5605C43.4277 12.3203 43.2559 12.5078 43.0449 12.6602C42.834 12.8125 42.5957 12.9258 42.3301 13C42.0684 13.0781 41.7891 13.1172 41.4922 13.1172C40.9844 13.1172 40.5586 13.0352 40.2148 12.8711C39.8711 12.707 39.6113 12.4531 39.4355 12.1094C39.2637 11.7656 39.1777 11.3242 39.1777 10.7852V6.57812H40.1621V10.7148C40.1621 11.25 40.2832 11.6504 40.5254 11.916C40.7676 12.1777 41.1367 12.3086 41.6328 12.3086C42.1094 12.3086 42.4883 12.2188 42.7695 12.0391C43.0547 11.8594 43.2598 11.5957 43.3848 11.248C43.5098 10.8965 43.5723 10.4668 43.5723 9.95898V6.57812H44.5508ZM48.4004 15.8828C47.5566 15.8828 46.9062 15.7246 46.4492 15.4082C45.9922 15.0957 45.7637 14.6562 45.7637 14.0898C45.7637 13.6875 45.8906 13.3438 46.1445 13.0586C46.4023 12.7734 46.7578 12.584 47.2109 12.4902C47.043 12.4121 46.8984 12.2949 46.7773 12.1387C46.6602 11.9824 46.6016 11.8027 46.6016 11.5996C46.6016 11.3652 46.666 11.1602 46.7949 10.9844C46.9277 10.8047 47.1289 10.6328 47.3984 10.4688C47.0625 10.332 46.7891 10.1016 46.5781 9.77734C46.3711 9.44922 46.2676 9.06836 46.2676 8.63477C46.2676 8.17383 46.3633 7.78125 46.5547 7.45703C46.7461 7.12891 47.0234 6.87891 47.3867 6.70703C47.75 6.53516 48.1895 6.44922 48.7051 6.44922C48.8184 6.44922 48.9316 6.45508 49.0449 6.4668C49.1621 6.47461 49.2734 6.48828 49.3789 6.50781C49.4844 6.52344 49.5762 6.54297 49.6543 6.56641H51.8574V7.19336L50.6738 7.33984C50.791 7.49219 50.8887 7.67578 50.9668 7.89062C51.0449 8.10547 51.084 8.34375 51.084 8.60547C51.084 9.24609 50.8672 9.75586 50.4336 10.1348C50 10.5098 49.4043 10.6973 48.6465 10.6973C48.4668 10.6973 48.2832 10.6816 48.0957 10.6504C47.9043 10.7559 47.7578 10.873 47.6562 11.002C47.5586 11.1309 47.5098 11.2793 47.5098 11.4473C47.5098 11.5723 47.5469 11.6719 47.6211 11.7461C47.6992 11.8203 47.8105 11.875 47.9551 11.9102C48.0996 11.9414 48.2734 11.957 48.4766 11.957H49.6074C50.3066 11.957 50.8418 12.1035 51.2129 12.3965C51.5879 12.6895 51.7754 13.1172 51.7754 13.6797C51.7754 14.3906 51.4863 14.9355 50.9082 15.3145C50.3301 15.6934 49.4941 15.8828 48.4004 15.8828ZM48.4297 15.1211C48.9609 15.1211 49.4004 15.0664 49.748 14.957C50.0996 14.8516 50.3613 14.6973 50.5332 14.4941C50.709 14.2949 50.7969 14.0566 50.7969 13.7793C50.7969 13.5215 50.7383 13.3262 50.6211 13.1934C50.5039 13.0645 50.332 12.9785 50.1055 12.9355C49.8789 12.8887 49.6016 12.8652 49.2734 12.8652H48.1602C47.8711 12.8652 47.6191 12.9102 47.4043 13C47.1895 13.0898 47.0234 13.2227 46.9062 13.3984C46.793 13.5742 46.7363 13.793 46.7363 14.0547C46.7363 14.4023 46.8828 14.666 47.1758 14.8457C47.4688 15.0293 47.8867 15.1211 48.4297 15.1211ZM48.6816 9.98828C49.1465 9.98828 49.4961 9.87109 49.7305 9.63672C49.9648 9.40234 50.082 9.06055 50.082 8.61133C50.082 8.13086 49.9629 7.77148 49.7246 7.5332C49.4863 7.29102 49.1348 7.16992 48.6699 7.16992C48.2246 7.16992 47.8809 7.29492 47.6387 7.54492C47.4004 7.79102 47.2812 8.15234 47.2812 8.62891C47.2812 9.06641 47.4023 9.40234 47.6445 9.63672C47.8867 9.87109 48.2324 9.98828 48.6816 9.98828ZM55.5957 6.46094C56.1426 6.46094 56.6113 6.58203 57.002 6.82422C57.3926 7.06641 57.6914 7.40625 57.8984 7.84375C58.1055 8.27734 58.209 8.78516 58.209 9.36719V9.9707H53.7734C53.7852 10.7246 53.9727 11.2988 54.3359 11.6934C54.6992 12.0879 55.2109 12.2852 55.8711 12.2852C56.2773 12.2852 56.6367 12.248 56.9492 12.1738C57.2617 12.0996 57.5859 11.9902 57.9219 11.8457V12.7012C57.5977 12.8457 57.2754 12.9512 56.9551 13.0176C56.6387 13.084 56.2637 13.1172 55.8301 13.1172C55.2129 13.1172 54.6738 12.9922 54.2129 12.7422C53.7559 12.4883 53.4004 12.1172 53.1465 11.6289C52.8926 11.1406 52.7656 10.543 52.7656 9.83594C52.7656 9.14453 52.8809 8.54688 53.1113 8.04297C53.3457 7.53516 53.6738 7.14453 54.0957 6.87109C54.5215 6.59766 55.0215 6.46094 55.5957 6.46094ZM55.584 7.25781C55.0645 7.25781 54.6504 7.42773 54.3418 7.76758C54.0332 8.10742 53.8496 8.58203 53.791 9.19141H57.1895C57.1855 8.80859 57.125 8.47266 57.0078 8.18359C56.8945 7.89062 56.7207 7.66406 56.4863 7.50391C56.252 7.33984 55.9512 7.25781 55.584 7.25781ZM65.3984 9.77734C65.3984 10.3047 65.3301 10.7754 65.1934 11.1895C65.0566 11.6035 64.8594 11.9531 64.6016 12.2383C64.3438 12.5234 64.0312 12.7422 63.6641 12.8945C63.3008 13.043 62.8887 13.1172 62.4277 13.1172C61.998 13.1172 61.6035 13.043 61.2441 12.8945C60.8887 12.7422 60.5801 12.5234 60.3184 12.2383C60.0605 11.9531 59.8594 11.6035 59.7148 11.1895C59.5742 10.7754 59.5039 10.3047 59.5039 9.77734C59.5039 9.07422 59.623 8.47656 59.8613 7.98438C60.0996 7.48828 60.4395 7.11133 60.8809 6.85352C61.3262 6.5918 61.8555 6.46094 62.4688 6.46094C63.0547 6.46094 63.5664 6.5918 64.0039 6.85352C64.4453 7.11523 64.7871 7.49414 65.0293 7.99023C65.2754 8.48242 65.3984 9.07812 65.3984 9.77734ZM60.5117 9.77734C60.5117 10.293 60.5801 10.7402 60.7168 11.1191C60.8535 11.498 61.0645 11.791 61.3496 11.998C61.6348 12.2051 62.002 12.3086 62.4512 12.3086C62.8965 12.3086 63.2617 12.2051 63.5469 11.998C63.8359 11.791 64.0488 11.498 64.1855 11.1191C64.3223 10.7402 64.3906 10.293 64.3906 9.77734C64.3906 9.26562 64.3223 8.82422 64.1855 8.45312C64.0488 8.07812 63.8379 7.78906 63.5527 7.58594C63.2676 7.38281 62.8984 7.28125 62.4453 7.28125C61.7773 7.28125 61.2871 7.50195 60.9746 7.94336C60.666 8.38477 60.5117 8.99609 60.5117 9.77734ZM69.1543 12.3203C69.3145 12.3203 69.4785 12.3066 69.6465 12.2793C69.8145 12.252 69.9512 12.2188 70.0566 12.1797V12.9355C69.9434 12.9863 69.7852 13.0293 69.582 13.0645C69.3828 13.0996 69.1875 13.1172 68.9961 13.1172C68.6562 13.1172 68.3477 13.0586 68.0703 12.9414C67.793 12.8203 67.5703 12.6172 67.4023 12.332C67.2383 12.0469 67.1562 11.6523 67.1562 11.1484V7.33984H66.2422V6.86523L67.1621 6.48438L67.5488 5.08984H68.1348V6.57812H70.0156V7.33984H68.1348V11.1191C68.1348 11.5215 68.2266 11.8223 68.4102 12.0215C68.5977 12.2207 68.8457 12.3203 69.1543 12.3203ZM77.6621 13H76.7129V6.92969C76.7129 6.69922 76.7129 6.50195 76.7129 6.33789C76.7168 6.16992 76.7207 6.01758 76.7246 5.88086C76.7324 5.74023 76.7422 5.59766 76.7539 5.45312C76.6328 5.57812 76.5195 5.68555 76.4141 5.77539C76.3086 5.86133 76.1777 5.96875 76.0215 6.09766L75.043 6.88281L74.5332 6.2207L76.8535 4.43359H77.6621V13ZM86.5684 8.70508C86.5684 9.40039 86.5156 10.0215 86.4102 10.5684C86.3047 11.1152 86.1387 11.5781 85.9121 11.957C85.6855 12.3359 85.3926 12.625 85.0332 12.8242C84.6738 13.0195 84.2422 13.1172 83.7383 13.1172C83.1016 13.1172 82.5742 12.9434 82.1562 12.5957C81.7422 12.248 81.4316 11.7461 81.2246 11.0898C81.0215 10.4297 80.9199 9.63477 80.9199 8.70508C80.9199 7.79102 81.0117 7.00586 81.1953 6.34961C81.3828 5.68945 81.6836 5.18359 82.0977 4.83203C82.5117 4.47656 83.0586 4.29883 83.7383 4.29883C84.3828 4.29883 84.9141 4.47461 85.332 4.82617C85.75 5.17383 86.0605 5.67773 86.2637 6.33789C86.4668 6.99414 86.5684 7.7832 86.5684 8.70508ZM81.8984 8.70508C81.8984 9.50195 81.959 10.166 82.0801 10.6973C82.2012 11.2285 82.3965 11.627 82.666 11.8926C82.9395 12.1543 83.2969 12.2852 83.7383 12.2852C84.1797 12.2852 84.5352 12.1543 84.8047 11.8926C85.0781 11.6309 85.2754 11.2344 85.3965 10.7031C85.5215 10.1719 85.584 9.50586 85.584 8.70508C85.584 7.91992 85.5234 7.26367 85.4023 6.73633C85.2812 6.20508 85.0859 5.80664 84.8164 5.54102C84.5469 5.27148 84.1875 5.13672 83.7383 5.13672C83.2891 5.13672 82.9297 5.27148 82.6602 5.54102C82.3906 5.80664 82.1953 6.20508 82.0742 6.73633C81.957 7.26367 81.8984 7.91992 81.8984 8.70508ZM90.6055 4.31055C91.1016 4.31055 91.541 4.38867 91.9238 4.54492C92.3066 4.70117 92.6055 4.93164 92.8203 5.23633C93.0391 5.53711 93.1484 5.9082 93.1484 6.34961C93.1484 6.69727 93.0723 7.00195 92.9199 7.26367C92.7715 7.52148 92.5703 7.74805 92.3164 7.94336C92.0625 8.13477 91.7812 8.30664 91.4727 8.45898C91.8398 8.62695 92.1699 8.81641 92.4629 9.02734C92.7598 9.23828 92.9941 9.48633 93.166 9.77148C93.3379 10.0566 93.4238 10.3945 93.4238 10.7852C93.4238 11.2656 93.3066 11.6816 93.0723 12.0332C92.8418 12.3809 92.5176 12.6484 92.0996 12.8359C91.6816 13.0234 91.1914 13.1172 90.6289 13.1172C90.0234 13.1172 89.5078 13.0273 89.082 12.8477C88.6602 12.6641 88.3379 12.4023 88.1152 12.0625C87.8965 11.7188 87.7871 11.3066 87.7871 10.8262C87.7871 10.4316 87.8711 10.0898 88.0391 9.80078C88.207 9.50781 88.4297 9.25586 88.707 9.04492C88.9844 8.83398 89.2871 8.65625 89.6152 8.51172C89.3301 8.35547 89.0684 8.17773 88.8301 7.97852C88.5957 7.7793 88.4082 7.54688 88.2676 7.28125C88.1309 7.01172 88.0625 6.69922 88.0625 6.34375C88.0625 5.91016 88.1719 5.54297 88.3906 5.24219C88.6133 4.9375 88.916 4.70703 89.2988 4.55078C89.6855 4.39062 90.1211 4.31055 90.6055 4.31055ZM88.7422 10.832C88.7422 11.2695 88.8965 11.6309 89.2051 11.916C89.5137 12.1973 89.9805 12.3379 90.6055 12.3379C91.1992 12.3379 91.6582 12.1973 91.9824 11.916C92.3066 11.6309 92.4688 11.2578 92.4688 10.7969C92.4688 10.5117 92.3945 10.2617 92.2461 10.0469C92.0977 9.82812 91.8867 9.63281 91.6133 9.46094C91.3398 9.28906 91.0176 9.13281 90.6465 8.99219L90.4355 8.91602C90.0762 9.06445 89.7695 9.23047 89.5156 9.41406C89.2656 9.59375 89.0742 9.79883 88.9414 10.0293C88.8086 10.2598 88.7422 10.5273 88.7422 10.832ZM90.5938 5.10742C90.1328 5.10742 89.7559 5.21875 89.4629 5.44141C89.1699 5.66016 89.0234 5.97656 89.0234 6.39062C89.0234 6.6875 89.0938 6.93945 89.2344 7.14648C89.3789 7.34961 89.5742 7.52539 89.8203 7.67383C90.0664 7.81836 90.3418 7.95312 90.6465 8.07812C90.9434 7.95312 91.207 7.81641 91.4375 7.66797C91.668 7.51562 91.8496 7.33594 91.9824 7.12891C92.1152 6.92188 92.1816 6.67383 92.1816 6.38477C92.1816 5.9707 92.0352 5.6543 91.7422 5.43555C91.4531 5.2168 91.0703 5.10742 90.5938 5.10742Z" fill="white"/>
</svg>
