<svg width="80" height="80" viewBox="0 0 80 80" fill="none" xmlns="http://www.w3.org/2000/svg">
<rect x="0.5" y="0.5" width="79" height="79" rx="7.5" fill="white"/>
<rect x="0.5" y="0.5" width="79" height="79" rx="7.5" stroke="#B4BED9"/>
<path d="M58.3587 46.3172C57.4569 45.4538 54.3103 42.4607 51.9695 39.1222L51.912 39.0263L51.9312 39.0455C50.9527 37.6448 50.1276 36.1867 49.6672 34.786C49.3602 33.8651 49.1875 32.8865 49.1683 31.908C49.1875 31.083 49.341 30.258 49.6672 29.4905C49.955 28.7422 50.3962 27.9748 50.9143 27.2073V27.1881C51.6817 26.0945 52.6219 25.02 53.5812 24.0415C54.2719 23.3316 57.2459 20.4344 58.2244 19.4751C58.4355 19.2448 58.5889 18.9762 58.6657 18.6692C58.7233 18.3047 58.7424 17.921 58.7424 17.5564V17L40.9756 30.8528C40.6878 31.0446 40.4767 31.3132 40.3616 31.6202C40.2465 31.3132 40.0354 31.0446 39.7668 30.8528L22 17V46.7777L39.786 32.9249C40.0738 32.7331 40.2849 32.4644 40.4 32.1575C40.4767 32.3877 40.5919 32.5988 40.7837 32.7714C42.0692 33.9994 47.9212 39.5635 49.4945 44.3026C49.8206 45.2236 49.9933 46.2021 49.9933 47.1806C49.9933 48.0056 49.8206 48.8115 49.4945 49.5598C48.7846 51.3633 47.1921 53.2628 45.5804 54.932C44.8897 55.6419 41.8774 58.5199 40.9372 59.4793C40.7262 59.6903 40.5727 59.9781 40.4959 60.2659C40.4384 60.6688 40.4192 61.0909 40.4192 61.4939V62.0503L58.186 48.1975C58.5314 47.9673 58.7616 47.5835 58.8 47.1614C58.7808 46.8544 58.6273 46.5283 58.3587 46.3172ZM25.9908 42.7869C24.6094 43.8613 23.5733 44.7055 22.8442 45.2619C22.7867 45.3195 22.7867 45.166 22.7867 45.0701C22.7867 44.9741 22.7867 44.859 22.825 44.8015C24.3408 43.4392 30.327 38.8728 32.073 34.5174C32.8213 32.8482 32.8213 30.9295 32.073 29.2411C30.3462 24.8857 24.36 20.3193 22.825 18.957C22.7867 18.9187 22.7867 18.746 22.7867 18.6884C22.7867 18.6309 22.7867 18.4582 22.8634 18.5157C23.5925 19.0722 24.6094 19.9164 25.9908 20.9908C27.4682 22.142 28.8496 23.3892 30.1543 24.7322C32.3416 26.9962 34.03 29.4521 34.03 31.8697C34.03 34.3064 32.3608 36.7623 30.1543 39.0071C28.8496 40.3693 27.4682 41.6357 25.9908 42.7869ZM39.268 32.6947C37.4836 33.9226 34.7975 36.1675 31.248 38.9687C31.1712 39.0263 31.1904 38.8152 31.2096 38.7385C31.2288 38.6234 31.2672 38.5274 31.3055 38.4315C32.591 37.1076 33.6847 35.6302 34.5481 34.0186C35.162 32.8674 35.2964 32.0999 36.39 32.0999H39.4407C39.9203 32.0999 39.479 32.522 39.268 32.6947ZM50.7992 25.941C49.9358 27.0154 49.2259 28.1474 48.7846 29.2411C48.0363 30.9295 48.0363 32.8674 48.7846 34.5558C49.3602 35.9948 50.1084 37.3762 51.0102 38.6425C51.4131 39.1798 51.5858 39.41 51.8544 39.7746C51.912 39.8705 51.9696 39.9664 52.0079 40.0815L52.0463 40.4269C51.9504 40.3693 51.8736 40.2926 51.7777 40.2159C51.4899 39.9472 51.1062 39.6019 50.6457 39.103C48.42 36.8774 46.8275 34.2872 46.8275 31.8888C46.8275 29.4905 48.4968 27.0538 50.7032 24.809C52.0079 23.4851 53.4086 22.2571 54.8667 21.1059C55.4231 20.6646 55.9028 20.2809 56.3633 19.9356L57.0348 19.4367C57.0732 19.3983 57.0924 19.4751 57.0732 19.4943C57.0924 19.6478 57.054 19.7821 56.9581 19.8972C56.8046 20.0507 56.6511 20.185 56.4976 20.3193C54.8475 21.6815 52.5451 23.7345 50.7992 25.941ZM41.4936 32.6947C41.2826 32.522 40.8221 32.0807 41.2826 32.0807H44.2373C45.3693 32.0807 45.7914 33.2127 46.3862 34.3639C47.3072 35.8989 48.3816 37.3379 49.6096 38.6234C49.7247 38.7769 49.8015 38.9687 49.8398 39.1606C49.8782 39.2757 49.8398 39.3141 49.7247 39.2181C46.0601 36.5512 42.1652 33.2511 41.4936 32.6947ZM45.5037 56.2943C45.331 56.4478 45.1967 56.5437 45.2159 56.4286C45.2159 56.3135 45.2159 56.064 45.3118 55.9681C47.4607 53.8576 49.5904 51.4976 50.3579 49.6365C50.7032 48.8498 50.8951 48.0248 50.9143 47.1614C50.9143 46.2405 50.7608 45.3387 50.4538 44.4753C49.7439 42.4607 48.1706 40.2734 46.5397 38.3739C46.1368 37.8943 45.7914 37.4913 45.6571 37.3379C45.6188 37.2803 45.6188 37.2419 45.6571 37.2419C45.7723 37.2419 45.8874 37.2995 45.9833 37.3762C46.0217 37.4146 46.4822 37.8943 46.7316 38.1629C47.2496 38.7001 47.7485 39.3141 48.2857 39.9281C50.2236 42.2113 51.9312 44.7247 51.9312 47.1806C51.9312 49.4254 50.3387 51.6511 48.2282 53.7233C47.7485 54.2413 46.77 55.1814 45.5037 56.2943ZM57.5912 48.0248C55.5766 49.4446 52.5451 51.9197 48.4968 55.1239C48.3816 55.2198 48.4008 54.9512 48.4008 54.8745C48.4008 54.7785 48.42 54.6826 48.4776 54.6058C49.955 53.0901 51.2021 51.4017 52.219 49.5406C52.9097 48.2359 53.0824 47.3533 54.3487 47.3533H57.8023C58.3203 47.3725 57.8215 47.8713 57.5912 48.0248Z" fill="#B4BED9"/>
</svg>
