<svg width="162" height="100" viewBox="0 0 162 100" fill="none" xmlns="http://www.w3.org/2000/svg">
<path id="Vector" d="M156.816 32.3841C156.816 32.3841 155.202 29.1374 153.207 29.1374H134.619C132.63 29.1374 131.017 30.5945 131.017 32.3841V35.5255H125.95C125.95 32.4228 125.95 30.4726 125.95 30.2842C125.95 29.1374 124.626 29.2426 124.626 29.2426H113.334C113.334 13.3248 104.4 13.3802 104.4 13.3802H84.4202V7.97274H104.4V0H38.1555V7.97274H59.9394V13.3802C59.9394 13.3802 48.8382 13.3802 39.8857 13.3802L27.83 21.6743H18.4837C16.4888 21.6743 14.8754 23.1259 14.8754 24.9155V45.7311H8.87221V23.4971H0V79.323H8.87221V56.3411H14.8754V77.8991C14.8754 79.6886 16.4888 81.1402 18.4837 81.1402H27.83L57.1563 100C57.1563 100 110.175 100 118.518 100C126.849 100 125.95 93.6118 125.95 93.6118C125.95 93.6118 125.95 89.7446 125.95 83.9105H131.017V91.0743C131.017 92.8694 132.63 94.321 134.619 94.321H153.207C155.202 94.321 156.816 91.0743 156.816 91.0743L162 77.4946V45.9693L156.816 32.3841Z" fill="url(#paint0_linear_450_876)"/>
<defs>
<linearGradient id="paint0_linear_450_876" x1="81" y1="0" x2="81" y2="100" gradientUnits="userSpaceOnUse">
<stop offset="0.535" stop-color="#A7CDEA"/>
<stop offset="0.5351" stop-color="#7FB1D7"/>
</linearGradient>
</defs>
</svg>
