<svg width="25" height="24" viewBox="0 0 25 24" fill="none" xmlns="http://www.w3.org/2000/svg">
<ellipse cx="12.5" cy="12" rx="12.5" ry="12" fill="#A7CDEA"/>
<path d="M11.5566 7.43359L8.48047 16H7.47852L4.40234 7.43359H5.44531L7.44922 13.0762C7.53125 13.3027 7.60352 13.5195 7.66602 13.7266C7.73242 13.9336 7.79102 14.1328 7.8418 14.3242C7.89258 14.5156 7.9375 14.7012 7.97656 14.8809C8.01562 14.7012 8.06055 14.5156 8.11133 14.3242C8.16211 14.1289 8.2207 13.9277 8.28711 13.7207C8.35352 13.5098 8.42773 13.2891 8.50977 13.0586L10.502 7.43359H11.5566ZM19.4316 16H18.2832L13.6133 8.80469H13.5664C13.5781 8.99609 13.5918 9.21484 13.6074 9.46094C13.623 9.70312 13.6348 9.96289 13.6426 10.2402C13.6543 10.5137 13.6602 10.793 13.6602 11.0781V16H12.7344V7.43359H13.877L18.5293 14.6055H18.5703C18.5625 14.4688 18.5527 14.2754 18.541 14.0254C18.5293 13.7715 18.5176 13.5 18.5059 13.2109C18.498 12.918 18.4941 12.6465 18.4941 12.3965V7.43359H19.4316V16Z" fill="white"/>
</svg>
