<svg width="25" height="24" viewBox="0 0 25 24" fill="none" xmlns="http://www.w3.org/2000/svg">
<ellipse cx="12.5" cy="12" rx="12.5" ry="12" fill="#5FA2D6"/>
<path d="M11.4043 7.43359L8.32812 16H7.32617L4.25 7.43359H5.29297L7.29688 13.0762C7.37891 13.3027 7.45117 13.5195 7.51367 13.7266C7.58008 13.9336 7.63867 14.1328 7.68945 14.3242C7.74023 14.5156 7.78516 14.7012 7.82422 14.8809C7.86328 14.7012 7.9082 14.5156 7.95898 14.3242C8.00977 14.1289 8.06836 13.9277 8.13477 13.7207C8.20117 13.5098 8.27539 13.2891 8.35742 13.0586L10.3496 7.43359H11.4043ZM20.0117 11.7051C20.0117 12.3652 19.9277 12.9668 19.7598 13.5098C19.5918 14.0488 19.3418 14.5137 19.0098 14.9043C18.6816 15.291 18.2734 15.5898 17.7852 15.8008C17.2969 16.0117 16.7305 16.1172 16.0859 16.1172C15.4219 16.1172 14.8418 16.0117 14.3457 15.8008C13.8535 15.5898 13.4434 15.2891 13.1152 14.8984C12.791 14.5078 12.5469 14.041 12.3828 13.498C12.2227 12.9551 12.1426 12.3535 12.1426 11.6934C12.1426 10.8184 12.2871 10.0508 12.5762 9.39062C12.8652 8.73047 13.3027 8.2168 13.8887 7.84961C14.4785 7.48242 15.2168 7.29883 16.1035 7.29883C16.9512 7.29883 17.6641 7.48047 18.2422 7.84375C18.8242 8.20703 19.2637 8.71875 19.5605 9.37891C19.8613 10.0352 20.0117 10.8105 20.0117 11.7051ZM13.1914 11.7051C13.1914 12.4316 13.2949 13.0605 13.502 13.5918C13.709 14.123 14.0254 14.5332 14.4512 14.8223C14.8809 15.1113 15.4258 15.2559 16.0859 15.2559C16.75 15.2559 17.293 15.1113 17.7148 14.8223C18.1406 14.5332 18.4551 14.123 18.6582 13.5918C18.8613 13.0605 18.9629 12.4316 18.9629 11.7051C18.9629 10.5996 18.7305 9.73633 18.2656 9.11523C17.8047 8.49023 17.084 8.17773 16.1035 8.17773C15.4395 8.17773 14.8926 8.32031 14.4629 8.60547C14.0332 8.89062 13.7129 9.29688 13.502 9.82422C13.2949 10.3477 13.1914 10.9746 13.1914 11.7051Z" fill="white"/>
</svg>
